<?xml version="1.0" encoding="UTF-8" standalone="no"?>
<svg
   viewBox="0 0 48 48"
   width="48px"
   height="48px"
   version="1.1"
   id="svg9"
   sodipodi:docname="icons8-plus.svg"
   inkscape:version="1.3.2 (091e20e, 2023-11-25, custom)"
   xmlns:inkscape="http://www.inkscape.org/namespaces/inkscape"
   xmlns:sodipodi="http://sodipodi.sourceforge.net/DTD/sodipodi-0.dtd"
   xmlns="http://www.w3.org/2000/svg"
   xmlns:svg="http://www.w3.org/2000/svg">
  <defs
     id="defs9">
    <linearGradient
       id="linearGradient14"
       x1="22"
       x2="26"
       y1="24"
       y2="24"
       gradientUnits="userSpaceOnUse"
       gradientTransform="matrix(1.3552124,0,0,1,-16.586872,2.2857143)">
      <stop
         offset="0.824"
         stop-color="#135d36"
         id="stop12"
         style="stop-color:#0378d7;stop-opacity:1;" />
      <stop
         offset="0.93099999"
         stop-color="#125933"
         id="stop13"
         style="stop-color:#0371cd;stop-opacity:1;" />
      <stop
         offset="1"
         stop-color="#11522f"
         id="stop14"
         style="stop-color:#0370c8;stop-opacity:1;" />
    </linearGradient>
    <linearGradient
       id="linearGradient9"
       x1="22"
       x2="26"
       y1="24"
       y2="24"
       gradientUnits="userSpaceOnUse"
       gradientTransform="matrix(1.3552124,0,0,1,-16.586872,2.2857143)">
      <stop
         offset=".824"
         stop-color="#135d36"
         id="stop4-1" />
      <stop
         offset=".931"
         stop-color="#125933"
         id="stop5-6" />
      <stop
         offset="1"
         stop-color="#11522f"
         id="stop6-6" />
    </linearGradient>
  </defs>
  <sodipodi:namedview
     id="namedview9"
     pagecolor="#ffffff"
     bordercolor="#000000"
     borderopacity="0.25"
     inkscape:showpageshadow="2"
     inkscape:pageopacity="0.0"
     inkscape:pagecheckerboard="0"
     inkscape:deskcolor="#d1d1d1"
     showguides="true"
     inkscape:zoom="16.1875"
     inkscape:cx="24"
     inkscape:cy="24"
     inkscape:window-width="1920"
     inkscape:window-height="991"
     inkscape:window-x="-9"
     inkscape:window-y="-9"
     inkscape:window-maximized="1"
     inkscape:current-layer="svg9" />
  <linearGradient
     id="dyoR47AMqzPbkc_5POASHa"
     x1="9.858"
     x2="38.142"
     y1="-27.858"
     y2="-56.142"
     gradientTransform="matrix(1 0 0 -1 0 -18)"
     gradientUnits="userSpaceOnUse">
    <stop
       offset="0"
       stop-color="#9dffce"
       id="stop1"
       style="stop-color:#33bef0;stop-opacity:1;" />
    <stop
       offset="1"
       stop-color="#50d18d"
       id="stop2"
       style="stop-color:#0a85d9;stop-opacity:1;" />
  </linearGradient>
  <path
     fill="url(#dyoR47AMqzPbkc_5POASHa)"
     d="M44,24c0,11.045-8.955,20-20,20S4,35.045,4,24S12.955,4,24,4S44,12.955,44,24z"
     id="path2" />
  <path
     fill="url(#dyoR47AMqzPbkc_5POASHb)"
     d="m 28.697777,13.239382 h 3.581278 c 0.988434,0 1.79064,0.438063 1.79064,0.977817 v 19.556332 c 0,0.539754 -0.802206,0.977817 -1.79064,0.977817 h -3.581278 c -0.988434,0 -1.79064,-0.438063 -1.79064,-0.977817 V 14.217199 c 0,-0.539754 0.802206,-0.977817 1.79064,-0.977817 z"
     id="path6-2-3-39"
     style="fill:#0a85d9;fill-opacity:0.42443728;stroke-width:1.32322" />
  <path
     fill="url(#dyoR47AMqzPbkc_5POASHb)"
     d="m 28.964286,13.614674 h 3.071428 c 0.847715,0 1.535714,0.422967 1.535714,0.944121 v 18.88241 c 0,0.521154 -0.687999,0.944121 -1.535714,0.944121 h -3.071428 c -0.847715,0 -1.535714,-0.422967 -1.535714,-0.944121 v -18.88241 c 0,-0.521154 0.687999,-0.944121 1.535714,-0.944121 z"
     id="path6-2-3"
     style="fill:#0a85d9;fill-opacity:0.41479099;stroke-width:1.20412" />
  <path
     fill="url(#dyoR47AMqzPbkc_5POASHb)"
     d="m 15.732725,13.250965 h 3.581278 c 0.988434,0 1.79064,0.438063 1.79064,0.977817 v 19.556332 c 0,0.539754 -0.802206,0.977817 -1.79064,0.977817 h -3.581278 c -0.988434,0 -1.79064,-0.438063 -1.79064,-0.977817 V 14.228782 c 0,-0.539754 0.802206,-0.977817 1.79064,-0.977817 z"
     id="path6-2-3-39-7"
     style="fill:#0a85d9;fill-opacity:0.49839228;stroke-width:1.32322" />
  <path
     fill="url(#dyoR47AMqzPbkc_5POASHb)"
     d="m 15.999234,13.626257 h 3.071428 c 0.847715,0 1.535714,0.422967 1.535714,0.944121 v 18.88241 c 0,0.521154 -0.687999,0.944121 -1.535714,0.944121 h -3.071428 c -0.847715,0 -1.535714,-0.422967 -1.535714,-0.944121 v -18.88241 c 0,-0.521154 0.687999,-0.944121 1.535714,-0.944121 z"
     id="path6-2-3-9"
     style="fill:#0a85d9;fill-opacity:0.414791;stroke-width:1.20412" />
  <linearGradient
     id="dyoR47AMqzPbkc_5POASHb"
     x1="22"
     x2="26"
     y1="24"
     y2="24"
     gradientUnits="userSpaceOnUse"
     gradientTransform="matrix(1.3552124,0,0,1,-16.586872,2.2857143)">
    <stop
       offset=".824"
       stop-color="#135d36"
       id="stop4" />
    <stop
       offset="0.93099999"
       stop-color="#125933"
       id="stop5"
       style="stop-color:#0a80d3;stop-opacity:1;" />
    <stop
       offset="1"
       stop-color="#11522f"
       id="stop6"
       style="stop-color:#0370c8;stop-opacity:1;" />
  </linearGradient>
  <path
     fill="url(#dyoR47AMqzPbkc_5POASHb)"
     d="m 16.25,14 h 2.5 C 19.44,14 20,14.407273 20,14.909091 V 33.090909 C 20,33.592727 19.44,34 18.75,34 h -2.5 C 15.56,34 15,33.592727 15,33.090909 V 14.909091 C 15,14.407273 15.56,14 16.25,14 Z"
     id="path6"
     style="fill:#ffffff;stroke-width:1.06601;fill-opacity:1" />
  <path
     fill="url(#dyoR47AMqzPbkc_5POASHb)"
     d="m 29.25,14 h 2.5 C 32.44,14 33,14.407273 33,14.909091 V 33.090909 C 33,33.592727 32.44,34 31.75,34 h -2.5 C 28.56,34 28,33.592727 28,33.090909 V 14.909091 C 28,14.407273 28.56,14 29.25,14 Z"
     id="path6-2"
     style="fill:#ffffff;stroke-width:1.06601;fill-opacity:1" />
  <linearGradient
     id="dyoR47AMqzPbkc_5POASHc"
     x1="13"
     x2="35"
     y1="24"
     y2="24"
     gradientUnits="userSpaceOnUse"
     gradientTransform="matrix(0,-1,-1,0,54.980696,48.988418)">
    <stop
       offset=".824"
       stop-color="#135d36"
       id="stop7" />
    <stop
       offset=".931"
       stop-color="#125933"
       id="stop8" />
    <stop
       offset="1"
       stop-color="#11522f"
       id="stop9" />
  </linearGradient>
</svg>
