<?xml version="1.0" encoding="UTF-8" standalone="no"?>
<svg
   data-name="Layer 1"
   height="20"
   id="Layer_1"
   viewBox="0 0 20 20"
   width="20"
   version="1.1"
   sodipodi:docname="Clean.svg"
   inkscape:version="1.3.2 (091e20e, 2023-11-25, custom)"
   xmlns:inkscape="http://www.inkscape.org/namespaces/inkscape"
   xmlns:sodipodi="http://sodipodi.sourceforge.net/DTD/sodipodi-0.dtd"
   xmlns:xlink="http://www.w3.org/1999/xlink"
   xmlns="http://www.w3.org/2000/svg"
   xmlns:svg="http://www.w3.org/2000/svg">
  <defs
     id="defs4">
    <linearGradient
       id="linearGradient8"
       inkscape:collect="always">
      <stop
         style="stop-color:#eba600;stop-opacity:1;"
         offset="0"
         id="stop9" />
      <stop
         style="stop-color:#f7c13a;stop-opacity:1;"
         offset="1"
         id="stop10" />
    </linearGradient>
    <linearGradient
       id="linearGradient1"
       inkscape:collect="always">
      <stop
         style="stop-color:#ffcf54;stop-opacity:1;"
         offset="0"
         id="stop1" />
      <stop
         style="stop-color:#f0b421;stop-opacity:1;"
         offset="1"
         id="stop3" />
    </linearGradient>
    <linearGradient
       id="linearGradient6"
       inkscape:collect="always">
      <stop
         style="stop-color:#f0b421;stop-opacity:1;"
         offset="0"
         id="stop6" />
      <stop
         style="stop-color:#c28200;stop-opacity:1;"
         offset="1"
         id="stop7" />
    </linearGradient>
    <linearGradient
       id="linearGradient4"
       inkscape:collect="always">
      <stop
         style="stop-color:#0d61a9;stop-opacity:1;"
         offset="0"
         id="stop4" />
      <stop
         style="stop-color:#16528c;stop-opacity:1;"
         offset="1"
         id="stop5" />
    </linearGradient>
    <linearGradient
       inkscape:collect="always"
       xlink:href="#linearGradient4"
       id="linearGradient5"
       x1="9.8830976"
       y1="10.548555"
       x2="13.721957"
       y2="14.533111"
       gradientUnits="userSpaceOnUse"
       gradientTransform="translate(-1.7915058,-2.2548263)" />
    <linearGradient
       inkscape:collect="always"
       xlink:href="#linearGradient6"
       id="linearGradient7"
       x1="21.11969"
       y1="2.8137078"
       x2="12.542446"
       y2="11.462358"
       gradientUnits="userSpaceOnUse"
       gradientTransform="translate(-1.7915058,-2.2548263)" />
    <linearGradient
       inkscape:collect="always"
       xlink:href="#linearGradient1"
       id="linearGradient2"
       x1="4.47119"
       y1="18.716749"
       x2="10.863464"
       y2="13.465784"
       gradientUnits="userSpaceOnUse"
       gradientTransform="translate(-1.7915058,-2.2548263)" />
    <linearGradient
       inkscape:collect="always"
       xlink:href="#linearGradient8"
       id="linearGradient10"
       x1="8.0195208"
       y1="15.972847"
       x2="4.1698842"
       y2="18.382113"
       gradientUnits="userSpaceOnUse"
       gradientTransform="translate(-1.7915058,-2.2548263)" />
  </defs>
  <sodipodi:namedview
     id="namedview4"
     pagecolor="#ffffff"
     bordercolor="#000000"
     borderopacity="0.25"
     inkscape:showpageshadow="2"
     inkscape:pageopacity="0.0"
     inkscape:pagecheckerboard="0"
     inkscape:deskcolor="#d1d1d1"
     inkscape:zoom="32.375"
     inkscape:cx="11.969112"
     inkscape:cy="11.969112"
     inkscape:window-width="1920"
     inkscape:window-height="991"
     inkscape:window-x="-9"
     inkscape:window-y="-9"
     inkscape:window-maximized="1"
     inkscape:current-layer="Layer_1" />
  <title
     id="title1" />
  <path
     d="m 9.6226942,11.745174 -1.4142,-1.4142 9.7928998,-9.79291025 a 1,1 0 0 1 1.4142,0 v 0 a 1.00005,1.00005 0 0 1 0,1.41421995 z"
     style="fill:url(#linearGradient7)"
     id="path1" />
  <path
     d="m 7.1485942,19.557674 a 0.64322,0.64322 0 0 1 -0.2441,-0.0476 10.17571,10.17571 0 0 1 -6.69359999,-8.7213 0.65316,0.65316 0 0 1 0.79439999,-0.6914 6.87393,6.87393 0 0 0 4.8854,-0.6583003 l 0.0093,-0.0051 1.1261,-0.6201 a 0.653,0.653 0 0 1 0.7391,0.0757 l 3.6725998,3.1350003 a 0.65159,0.65159 0 0 1 0.1726,0.7604 c -0.0102,0.0238 -0.3181,0.6932 -0.5435,1.1831 l -0.2313,0.5026 a 17.80309,17.80309 0 0 1 -3.2157998,4.8863 0.65293,0.65293 0 0 1 -0.4712,0.2007 z"
     style="fill:url(#linearGradient2)"
     id="path2" />
  <path
     d="m 11.326194,13.440974 -4.5318998,-4.5319003 1.4242,-0.7121 a 1.612,1.612 0 0 1 1.8606998,0.3019 l 1.6571,1.6572003 a 1.612,1.612 0 0 1 0.302,1.8607 z"
     style="fill:url(#linearGradient5)"
     id="path3" />
  <path
     d="m 3.0850942,17.026774 a 13.60612,13.60612 0 0 0 3.1234,-3.2816 12.94665,12.94665 0 0 1 -4.8299,0.9969 9.80421,9.80421 0 0 0 1.7065,2.2847 z"
     style="fill:url(#linearGradient10)"
     id="path4" />
</svg>
