<?xml version="1.0" encoding="UTF-8" standalone="no"?>
<!-- Created with Inkscape (http://www.inkscape.org/) -->

<svg
   width="210mm"
   height="210mm"
   viewBox="0 0 210 210"
   version="1.1"
   id="svg1"
   xml:space="preserve"
   inkscape:version="1.3.2 (091e20e, 2023-11-25, custom)"
   sodipodi:docname="FraEsen_logo.svg"
   xmlns:inkscape="http://www.inkscape.org/namespaces/inkscape"
   xmlns:sodipodi="http://sodipodi.sourceforge.net/DTD/sodipodi-0.dtd"
   xmlns="http://www.w3.org/2000/svg"
   xmlns:svg="http://www.w3.org/2000/svg"><sodipodi:namedview
     id="namedview1"
     pagecolor="#ffffff"
     bordercolor="#000000"
     borderopacity="0.25"
     inkscape:showpageshadow="2"
     inkscape:pageopacity="0.0"
     inkscape:pagecheckerboard="0"
     inkscape:deskcolor="#d1d1d1"
     inkscape:document-units="mm"
     inkscape:zoom="0.69219276"
     inkscape:cx="197.92175"
     inkscape:cy="276.65704"
     inkscape:window-width="1920"
     inkscape:window-height="991"
     inkscape:window-x="-9"
     inkscape:window-y="-9"
     inkscape:window-maximized="1"
     inkscape:current-layer="svg1" /><defs
     id="defs1" /><g
     id="g2"
     transform="matrix(1.2435212,0,0,1.2435212,17.102602,-3.5291715)"><path
       style="fill:#677637;fill-opacity:1"
       d="m 62.635484,111.79327 c 0.06132,-0.0245 0.134579,-0.0215 0.162804,0.007 0.02822,0.0282 -0.02194,0.0483 -0.111485,0.0446 -0.09895,-0.004 -0.119079,-0.0242 -0.05132,-0.0513 z m 2.457975,0.002 c 0.0584,-0.0236 0.153955,-0.0236 0.212352,0 0.0584,0.0236 0.01062,0.0428 -0.106176,0.0428 -0.116794,0 -0.164573,-0.0193 -0.106176,-0.0428 z m 86.242861,-2.2867 c 0.004,-0.099 0.0242,-0.11908 0.0513,-0.0513 0.0245,0.0613 0.0215,0.13458 -0.007,0.16281 -0.0282,0.0282 -0.0483,-0.0219 -0.0446,-0.11149 z m -19.22457,-0.51635 c 0.0584,-0.0236 0.15396,-0.0236 0.21236,0 0.0584,0.0236 0.0106,0.0428 -0.10618,0.0428 -0.11679,0 -0.16457,-0.0193 -0.10618,-0.0428 z m 19.30951,-1.18246 c 0.004,-0.099 0.0242,-0.11908 0.0513,-0.0513 0.0245,0.0613 0.0215,0.13457 -0.007,0.1628 -0.0282,0.0282 -0.0483,-0.0219 -0.0446,-0.11148 z m -93.112665,-1.11839 c -0.105655,-0.13472 -0.102651,-0.13773 0.03207,-0.0321 0.14149,0.11096 0.186486,0.18071 0.116576,0.18071 -0.01764,0 -0.08453,-0.0669 -0.148646,-0.14864 z m 93.282545,-2.19431 c 0.004,-0.099 0.0242,-0.11907 0.0513,-0.0513 0.0245,0.0613 0.0215,0.13457 -0.007,0.1628 -0.0282,0.0282 -0.0483,-0.0219 -0.0446,-0.11149 z m -7.01432,-0.62997 c 0.0846,-0.0934 0.17285,-0.16989 0.19621,-0.16989 0.0234,0 -0.0267,0.0765 -0.11127,0.16989 -0.0846,0.0934 -0.17285,0.16988 -0.19621,0.16988 -0.0234,0 0.0267,-0.0764 0.11127,-0.16988 z m 7.09926,-1.06884 c 0.004,-0.0989 0.0242,-0.11908 0.0513,-0.0513 0.0245,0.0613 0.0215,0.13458 -0.007,0.1628 -0.0282,0.0282 -0.0483,-0.0219 -0.0446,-0.11148 z m 0.0849,-1.69882 c 0.004,-0.099 0.0242,-0.11908 0.0513,-0.0513 0.0245,0.0613 0.0215,0.13458 -0.007,0.16281 -0.0282,0.0282 -0.0483,-0.022 -0.0446,-0.11149 z m -80.014237,-0.25482 c 0.0041,-0.099 0.0242,-0.11908 0.05132,-0.0513 0.02454,0.0613 0.02152,0.13458 -0.0067,0.1628 -0.02822,0.0282 -0.0483,-0.0219 -0.04461,-0.11148 z m 0.0067,-0.37516 c 0,-0.11679 0.01928,-0.16457 0.04284,-0.10617 0.02356,0.0584 0.02356,0.15395 0,0.21235 -0.02356,0.0584 -0.04284,0.0106 -0.04284,-0.10618 z M 151.9309,97.78651 c 0.004,-0.09895 0.0242,-0.119079 0.0513,-0.05132 0.0245,0.06132 0.0215,0.134579 -0.007,0.162804 -0.0282,0.02823 -0.0483,-0.02194 -0.0446,-0.111485 z M 79.483102,97.156532 c 0,-0.116793 0.01928,-0.164573 0.04284,-0.106176 0.02356,0.0584 0.02356,0.153955 0,0.212352 -0.02356,0.0584 -0.04284,0.01062 -0.04284,-0.106176 z M 41.177946,96.689358 c 0.0017,-0.140153 0.02077,-0.187204 0.0423,-0.10456 0.02154,0.08264 0.02012,0.197315 -0.0031,0.254823 -0.02327,0.05751 -0.04089,-0.01011 -0.03916,-0.150263 z m -0.0099,-0.601664 c 0.0041,-0.09895 0.0242,-0.119079 0.05132,-0.05132 0.02454,0.06132 0.02152,0.134578 -0.0067,0.162804 -0.02822,0.02823 -0.0483,-0.02194 -0.04461,-0.111485 z m 110.847744,0 c 0.004,-0.09895 0.0242,-0.119079 0.0513,-0.05132 0.0245,0.06132 0.0215,0.134578 -0.007,0.162804 -0.0282,0.02823 -0.0483,-0.02194 -0.0446,-0.111485 z M 54.853416,95.83995 c 0.0017,-0.140153 0.02077,-0.187204 0.0423,-0.10456 0.02154,0.08264 0.02012,0.197315 -0.0031,0.254823 -0.02327,0.05751 -0.04089,-0.01011 -0.03916,-0.150263 z m 24.632833,-0.254823 c 0.0017,-0.140152 0.02077,-0.187204 0.0423,-0.104559 0.02154,0.08264 0.02012,0.197315 -0.0031,0.254822 -0.02327,0.05751 -0.04089,-0.01011 -0.03916,-0.150263 z m -24.625098,-1.10423 c 6.38e-4,-0.233587 0.01713,-0.319064 0.03666,-0.189949 0.01952,0.129115 0.019,0.320232 -0.0012,0.424704 -0.02016,0.104472 -0.03614,-0.0012 -0.0355,-0.234755 z m 97.239639,-0.09202 c 0.004,-0.09895 0.0242,-0.119079 0.0513,-0.05132 0.0245,0.06132 0.0215,0.134578 -0.007,0.162803 -0.0282,0.02823 -0.0483,-0.02194 -0.0446,-0.111484 z M 22.09083,82.589184 c -3e-6,-5.652811 0.01015,-7.977838 0.02257,-5.166726 0.01241,2.811111 0.01242,7.436138 5e-6,10.277837 -0.01241,2.8417 -0.02257,0.541699 -0.02257,-5.111111 z m 55.320036,10.00541 c 0.105659,-0.02032 0.258553,-0.01955 0.339763,0.0017 0.08121,0.02126 -0.0052,0.03788 -0.192107,0.03694 -0.18687,-9.43e-4 -0.253315,-0.01834 -0.147656,-0.03866 z m 6.413657,0.0012 c 0.08264,-0.02154 0.197315,-0.02012 0.254823,0.0031 0.05751,0.02327 -0.01011,0.04089 -0.150263,0.03916 -0.140153,-0.0017 -0.187204,-0.02077 -0.10456,-0.0423 z m -38.8408,-4.910174 c 0.109722,-0.116794 0.218606,-0.212352 0.241965,-0.212352 0.02336,0 -0.0473,0.09556 -0.157024,0.212352 -0.109722,0.116794 -0.218606,0.212352 -0.241965,0.212352 -0.02336,0 0.0473,-0.09556 0.157024,-0.212352 z m 90.457387,-2.059815 -0.29272,-0.318528 0.31853,0.292721 c 0.29648,0.272457 0.35758,0.344336 0.29272,0.344336 -0.0142,0 -0.15754,-0.143338 -0.31853,-0.318529 z m -52.002331,-1.18677 c 0.150789,-0.01876 0.418353,-0.01907 0.594585,-6.85e-4 0.176233,0.01839 0.05286,0.03374 -0.274163,0.03412 -0.327022,3.77e-4 -0.471212,-0.01467 -0.320422,-0.03343 z m 3.78176,0.0028 c 0.08176,-0.02137 0.215537,-0.02137 0.297293,0 0.08176,0.02137 0.01486,0.03884 -0.148647,0.03884 -0.163511,0 -0.230402,-0.01748 -0.148646,-0.03884 z M 62.805366,82.828452 c 0.06132,-0.02454 0.134578,-0.02152 0.162803,0.0067 0.02822,0.02822 -0.02194,0.0483 -0.111485,0.04461 -0.09895,-0.0041 -0.119078,-0.0242 -0.05132,-0.05132 z m 31.613906,-0.143927 c 0,-0.01764 0.06689,-0.08453 0.148647,-0.148646 0.13472,-0.105656 0.137725,-0.102651 0.03207,0.03207 -0.110964,0.14149 -0.180716,0.186486 -0.180716,0.116577 z m -77.338604,-3.11074 c 0.08456,-0.09343 0.172853,-0.169882 0.196212,-0.169882 0.02336,0 -0.02671,0.07645 -0.111271,0.169882 -0.08456,0.09343 -0.172852,0.169882 -0.196211,0.169882 -0.02336,0 0.02671,-0.07645 0.11127,-0.169882 z m 42.676327,-0.658291 -0.205924,-0.233588 0.233588,0.205924 c 0.128473,0.113257 0.233587,0.218372 0.233587,0.233587 0,0.06662 -0.06878,0.0124 -0.261251,-0.205923 z m 37.656626,-0.318528 c 9.43e-4,-0.18687 0.01834,-0.253315 0.03865,-0.147656 0.02032,0.105658 0.01955,0.258552 -0.0017,0.339763 -0.02126,0.08121 -0.03788,-0.0052 -0.03694,-0.192107 z m -64.817844,-4.20457 c 0,-0.116794 0.01928,-0.164573 0.04284,-0.106176 0.02356,0.0584 0.02356,0.153955 0,0.212352 -0.02356,0.0584 -0.04284,0.01062 -0.04284,-0.106176 z M 150.6635,74.222514 c 0,-0.116794 0.0193,-0.164573 0.0428,-0.106176 0.0236,0.0584 0.0236,0.153955 0,0.212352 -0.0236,0.0584 -0.0428,0.01062 -0.0428,-0.106176 z M 57.829491,73.458047 c 0,-0.163511 0.01748,-0.230402 0.03885,-0.148647 0.02137,0.08176 0.02137,0.215538 0,0.297293 -0.02136,0.08176 -0.03885,0.01486 -0.03885,-0.148646 z M 32.510836,72.183935 c 0,-0.116794 0.01928,-0.164573 0.04284,-0.106176 0.02356,0.0584 0.02356,0.153955 0,0.212352 -0.02356,0.0584 -0.04284,0.01062 -0.04284,-0.106176 z M 150.57856,72.014053 c 0,-0.116794 0.0193,-0.164573 0.0428,-0.106176 0.0236,0.0584 0.0236,0.153955 0,0.212352 -0.0236,0.0584 -0.0428,0.01062 -0.0428,-0.106176 z M 32.425896,69.975474 c 0,-0.116794 0.01928,-0.164573 0.04284,-0.106176 0.02356,0.0584 0.02356,0.153955 0,0.212352 -0.02356,0.0584 -0.04284,0.01062 -0.04284,-0.106176 z M 150.49362,69.805592 c 0,-0.116794 0.0193,-0.164573 0.0428,-0.106176 0.0236,0.0584 0.0236,0.153955 0,0.212352 -0.0236,0.0584 -0.0428,0.01062 -0.0428,-0.106176 z M 32.340955,67.767013 c 0,-0.116794 0.01928,-0.164573 0.04284,-0.106176 0.02356,0.0584 0.02356,0.153955 0,0.212352 -0.02356,0.0584 -0.04284,0.01062 -0.04284,-0.106176 z M 150.40197,67.547582 c 0.004,-0.09895 0.0242,-0.119078 0.0513,-0.05132 0.0245,0.06132 0.0215,0.134578 -0.007,0.162803 -0.0282,0.02823 -0.0483,-0.02194 -0.0446,-0.111485 z m -92.578773,-0.8848 c 0,-0.116794 0.01928,-0.164573 0.04284,-0.106176 0.02356,0.0584 0.02356,0.153955 0,0.212352 -0.02356,0.0584 -0.04284,0.01062 -0.04284,-0.106176 z m -25.567183,-1.10423 c 0,-0.116794 0.01928,-0.164573 0.04284,-0.106176 0.02356,0.0584 0.02356,0.153955 0,0.212352 -0.02356,0.0584 -0.04284,0.01062 -0.04284,-0.106176 z M 150.31703,65.339121 c 0.004,-0.09895 0.0242,-0.119078 0.0513,-0.05132 0.0245,0.06132 0.0215,0.134578 -0.007,0.162803 -0.0282,0.02823 -0.0483,-0.02194 -0.0446,-0.111485 z M 32.164367,63.300542 c 0.0041,-0.09895 0.0242,-0.119079 0.05132,-0.05132 0.02454,0.06132 0.02152,0.134578 -0.0067,0.162804 -0.02822,0.02822 -0.0483,-0.02194 -0.04461,-0.111485 z M 150.23209,63.13066 c 0.004,-0.09895 0.0242,-0.119078 0.0513,-0.05132 0.0245,0.06132 0.0215,0.134578 -0.007,0.162803 -0.0282,0.02822 -0.0483,-0.02194 -0.0446,-0.111485 z M 77.250395,62.606858 c -0.105656,-0.13472 -0.102651,-0.137725 0.03207,-0.03207 0.14149,0.110964 0.186485,0.180716 0.116576,0.180716 -0.01764,0 -0.08453,-0.06689 -0.148646,-0.148646 z m -0.594586,-0.594585 c -0.105655,-0.134721 -0.102651,-0.137725 0.03207,-0.03207 0.08176,0.06412 0.148646,0.131008 0.148646,0.148646 0,0.06991 -0.06975,0.02491 -0.180716,-0.116576 z M 15.827792,61.170316 c 0.0584,-0.02356 0.153955,-0.02356 0.212352,0 0.0584,0.02356 0.01062,0.04284 -0.106176,0.04284 -0.116794,0 -0.164573,-0.01928 -0.106176,-0.04284 z m 16.251635,-0.07823 c 0.0041,-0.09895 0.0242,-0.119079 0.05132,-0.05132 0.02454,0.06132 0.02152,0.134578 -0.0067,0.162804 -0.02823,0.02822 -0.0483,-0.02194 -0.04461,-0.111485 z M 150.14715,60.922199 c 0.004,-0.09895 0.0242,-0.119078 0.0513,-0.05132 0.0245,0.06132 0.0215,0.134578 -0.007,0.162803 -0.0282,0.02822 -0.0483,-0.02194 -0.0446,-0.111485 z M 63.606995,58.280031 c 0.08176,-0.02137 0.215537,-0.02137 0.297293,0 0.08176,0.02136 0.01486,0.03885 -0.148647,0.03885 -0.163511,0 -0.230402,-0.01748 -0.148646,-0.03885 z m 1.487985,-0.003 c 0.152669,-0.0189 0.382009,-0.01852 0.509645,8.66e-4 0.127636,0.01938 0.0027,0.03485 -0.277579,0.03437 -0.280304,-4.76e-4 -0.384734,-0.01633 -0.232066,-0.03524 z"
       id="path6" /><path
       style="fill:#677637;fill-opacity:1"
       d="m 62.929085,111.79243 c 0.08264,-0.0215 0.197315,-0.0201 0.254822,0.003 0.05751,0.0233 -0.01011,0.0409 -0.150263,0.0391 -0.140152,-0.002 -0.187204,-0.0208 -0.104559,-0.0423 z m 1.91486,8.4e-4 c 0.06132,-0.0245 0.134578,-0.0215 0.162804,0.007 0.02823,0.0282 -0.02194,0.0483 -0.111485,0.0446 -0.09895,-0.004 -0.119079,-0.0242 -0.05132,-0.0513 z m 1.613876,-1.69882 c 0.06132,-0.0245 0.134578,-0.0215 0.162803,0.007 0.02822,0.0282 -0.02194,0.0483 -0.111485,0.0446 -0.09895,-0.004 -0.119078,-0.0242 -0.05132,-0.0513 z m 84.878499,-0.84093 c 0.004,-0.0989 0.0242,-0.11908 0.0513,-0.0513 0.0245,0.0613 0.0215,0.13458 -0.007,0.1628 -0.0282,0.0282 -0.0483,-0.0219 -0.0446,-0.11148 z m -18.8848,-0.26153 c 0.0584,-0.0236 0.15395,-0.0236 0.21235,0 0.0584,0.0236 0.0106,0.0428 -0.10618,0.0428 -0.11679,0 -0.16457,-0.0193 -0.10617,-0.0428 z m -19.91877,-23.91729 -0.0211,-23.931076 -3.29145,-0.02326 -3.29146,-0.02326 3.29412,-0.02021 c 2.57219,-0.01578 3.30296,0.0031 3.33445,0.08597 0.0222,0.0584 0.0305,10.846941 0.0184,23.974543 l -0.0219,23.868363 z m 38.97345,20.86613 c 0.004,-0.099 0.0242,-0.11908 0.0513,-0.0513 0.0245,0.0613 0.0215,0.13458 -0.007,0.1628 -0.0282,0.0282 -0.0483,-0.0219 -0.0446,-0.11148 z m 0.0849,-1.69882 c 0.004,-0.0989 0.0242,-0.11908 0.0513,-0.0513 0.0245,0.0613 0.0215,0.13458 -0.007,0.16281 -0.0282,0.0282 -0.0483,-0.022 -0.0446,-0.11149 z m 0.0849,-1.69881 c 0.004,-0.099 0.0242,-0.11908 0.0513,-0.0513 0.0245,0.0613 0.0215,0.13457 -0.007,0.1628 -0.0282,0.0282 -0.0483,-0.0219 -0.0446,-0.11148 z m 0.16988,-3.312696 c 0.004,-0.09895 0.0242,-0.119079 0.0513,-0.05132 0.0245,0.06132 0.0215,0.134578 -0.007,0.162803 -0.0282,0.02823 -0.0483,-0.02194 -0.0446,-0.111484 z M 79.483102,97.496295 c 0,-0.116793 0.01928,-0.164572 0.04284,-0.106176 0.02356,0.0584 0.02356,0.153956 0,0.212352 -0.02356,0.0584 -0.04284,0.01062 -0.04284,-0.106176 z m 72.447798,0.03539 c 0.004,-0.09895 0.0242,-0.119078 0.0513,-0.05132 0.0245,0.06132 0.0215,0.134578 -0.007,0.162803 -0.0282,0.02822 -0.0483,-0.02194 -0.0446,-0.111485 z M 41.168093,96.342516 c 0.0041,-0.09895 0.0242,-0.119078 0.05132,-0.05132 0.02454,0.06132 0.02152,0.134578 -0.0067,0.162803 -0.02822,0.02822 -0.0483,-0.02194 -0.04461,-0.111485 z m 13.682175,-0.120333 c 0,-0.116793 0.01928,-0.164573 0.04284,-0.106176 0.02356,0.0584 0.02356,0.153956 0,0.212352 -0.02356,0.0584 -0.04284,0.01062 -0.04284,-0.106176 z m 97.165572,-0.389312 c 0.004,-0.09895 0.0242,-0.119078 0.0513,-0.05132 0.0245,0.06132 0.0215,0.134578 -0.007,0.162803 -0.0282,0.02823 -0.0483,-0.02194 -0.0446,-0.111485 z M 79.483102,95.202894 c 0,-0.116794 0.01928,-0.164573 0.04284,-0.106176 0.02356,0.0584 0.02356,0.153955 0,0.212352 -0.02356,0.0584 -0.04284,0.01062 -0.04284,-0.106176 z M 54.843563,93.964173 c 0.0041,-0.09895 0.0242,-0.119078 0.05132,-0.05132 0.02454,0.06132 0.02152,0.134578 -0.0067,0.162803 -0.02822,0.02822 -0.0483,-0.02194 -0.04461,-0.111485 z m 95.661407,-0.268342 c 0.31729,-0.01639 0.81419,-0.01627 1.10423,2.71e-4 0.29004,0.01654 0.0305,0.02994 -0.57688,0.0298 -0.60733,-1.49e-4 -0.84463,-0.01368 -0.52735,-0.03007 z M 20.460598,92.846423 c 0.317286,-0.01639 0.814189,-0.01627 1.104231,2.71e-4 0.290041,0.01654 0.03044,0.02994 -0.576883,0.0298 -0.607327,-1.49e-4 -0.844634,-0.01368 -0.527348,-0.03007 z m 117.505292,0.0019 c -0.0226,-0.03641 0.45223,-0.05451 1.05521,-0.04024 l 1.09633,0.02596 V 82.593906 72.353816 h -1.05554 c -0.8701,0 -1.06256,0.02268 -1.09558,0.129076 -0.028,0.09026 -0.0359,0.08387 -0.0263,-0.02124 0.0124,-0.135365 0.12343,-0.150311 1.11682,-0.150311 h 1.10307 v 10.277838 10.277837 l -1.07645,0.02372 c -0.59204,0.01305 -1.09495,-0.0061 -1.11756,-0.04247 z M 78.005452,92.594594 c 0.105659,-0.02032 0.258552,-0.01955 0.339763,0.0017 0.08121,0.02126 -0.0052,0.03788 -0.192107,0.03694 -0.18687,-9.43e-4 -0.253315,-0.01834 -0.147656,-0.03866 z m 5.394367,0.0012 c 0.08264,-0.02154 0.197315,-0.02012 0.254823,0.0031 0.05751,0.02327 -0.01011,0.04089 -0.150263,0.03916 -0.140153,-0.0017 -0.187204,-0.02077 -0.10456,-0.0423 z m -9.472516,-0.08233 c 0.0584,-0.02356 0.153955,-0.02356 0.212352,0 0.0584,0.02356 0.01062,0.04284 -0.106176,0.04284 -0.116794,0 -0.164573,-0.01928 -0.106176,-0.04284 z m 8.49408,-8.074568 c 0.151832,-0.01884 0.400284,-0.01884 0.552116,0 0.151831,0.01884 0.0276,0.03426 -0.276058,0.03426 -0.303663,0 -0.427889,-0.01542 -0.276058,-0.03426 z m 5.26633,0.0052 c 0.0584,-0.02356 0.153956,-0.02356 0.212352,0 0.0584,0.02356 0.01062,0.04284 -0.106176,0.04284 -0.116793,0 -0.164572,-0.01928 -0.106176,-0.04284 z M 65.857926,82.737982 c 0.759159,-0.01408 2.001418,-0.01408 2.760576,0 0.759159,0.01408 0.138029,0.0256 -1.380288,0.0256 -1.518317,0 -2.139446,-0.01152 -1.380288,-0.0256 z M 87.20601,77.485657 c 0.0041,-0.09895 0.0242,-0.119079 0.05132,-0.05132 0.02454,0.06132 0.02152,0.134578 -0.0067,0.162803 -0.02823,0.02823 -0.0483,-0.02194 -0.04461,-0.111484 z m 0.0067,-0.79986 c 0,-0.116793 0.01928,-0.164572 0.04284,-0.106176 0.02356,0.0584 0.02356,0.153956 0,0.212352 -0.02356,0.0584 -0.04284,0.01062 -0.04284,-0.106176 z M 32.589071,74.68261 c 0.0041,-0.09895 0.0242,-0.119078 0.05132,-0.05132 0.02454,0.06132 0.02152,0.134578 -0.0067,0.162803 -0.02822,0.02823 -0.0483,-0.02194 -0.04461,-0.111485 z M 150.65679,74.512728 c 0.004,-0.09895 0.0242,-0.119078 0.0513,-0.05132 0.0245,0.06132 0.0215,0.134578 -0.007,0.162803 -0.0282,0.02823 -0.0483,-0.02194 -0.0446,-0.111485 z M 32.504131,72.474149 c 0.0041,-0.09895 0.0242,-0.119078 0.05132,-0.05132 0.02454,0.06132 0.02152,0.134578 -0.0067,0.162803 -0.02822,0.02823 -0.0483,-0.02194 -0.04461,-0.111485 z M 150.57185,72.304267 c 0.004,-0.09895 0.0242,-0.119078 0.0513,-0.05132 0.0245,0.06132 0.0215,0.134578 -0.007,0.162803 -0.0282,0.02823 -0.0483,-0.02194 -0.0446,-0.111485 z M 20.460598,72.290748 c 0.317286,-0.01639 0.814189,-0.01627 1.104231,2.7e-4 0.290041,0.01654 0.03044,0.02994 -0.576883,0.0298 -0.607327,-1.48e-4 -0.844634,-0.01368 -0.527348,-0.03007 z m 11.958592,-2.02506 c 0.0041,-0.09895 0.0242,-0.119078 0.05132,-0.05132 0.02454,0.06132 0.02152,0.134578 -0.0067,0.162803 -0.02822,0.02823 -0.0483,-0.02194 -0.04461,-0.111485 z m 118.06772,-0.169882 c 0.004,-0.09895 0.0242,-0.119078 0.0513,-0.05132 0.0245,0.06132 0.0215,0.134578 -0.007,0.162803 -0.0282,0.02823 -0.0483,-0.02194 -0.0446,-0.111485 z M 32.334249,68.057227 c 0.0041,-0.09895 0.0242,-0.119078 0.05132,-0.05132 0.02454,0.06132 0.02152,0.134578 -0.0067,0.162803 -0.02823,0.02823 -0.0483,-0.02194 -0.04461,-0.111485 z M 150.40867,67.851953 c 0,-0.116793 0.0193,-0.164572 0.0428,-0.106176 0.0236,0.0584 0.0236,0.153956 0,0.212352 -0.0236,0.0584 -0.0428,0.01062 -0.0428,-0.106176 z M 57.816491,66.358411 c 0.0041,-0.09895 0.0242,-0.119079 0.05132,-0.05132 0.02454,0.06132 0.02152,0.134578 -0.0067,0.162804 -0.02822,0.02822 -0.0483,-0.02194 -0.04461,-0.111485 z m 12.649474,-0.237344 c 0,-0.01764 0.06689,-0.08453 0.148646,-0.148646 0.134721,-0.105655 0.137726,-0.102651 0.03207,0.03207 -0.110964,0.14149 -0.180716,0.186486 -0.180716,0.116576 z M 32.249308,65.848766 c 0.0041,-0.09895 0.0242,-0.119079 0.05132,-0.05132 0.02454,0.06132 0.02152,0.134578 -0.0067,0.162803 -0.02822,0.02823 -0.0483,-0.02194 -0.04461,-0.111485 z M 150.32373,65.643492 c 0,-0.116793 0.0193,-0.164572 0.0428,-0.106176 0.0236,0.0584 0.0236,0.153956 0,0.212352 -0.0236,0.0584 -0.0428,0.01062 -0.0428,-0.106176 z M 32.171073,63.604913 c 0,-0.116794 0.01928,-0.164573 0.04284,-0.106176 0.02356,0.0584 0.02356,0.153955 0,0.212352 -0.02356,0.0584 -0.04284,0.01062 -0.04284,-0.106176 z M 150.23879,63.435031 c 0,-0.116793 0.0193,-0.164572 0.0429,-0.106176 0.0236,0.0584 0.0236,0.153956 0,0.212352 -0.0236,0.0584 -0.0429,0.01062 -0.0429,-0.106176 z M 32.086132,61.396452 c 0,-0.116794 0.01928,-0.164573 0.04284,-0.106176 0.02356,0.0584 0.02356,0.153955 0,0.212352 -0.02356,0.0584 -0.04284,0.01062 -0.04284,-0.106176 z M 150.15385,61.22657 c 0,-0.116793 0.0193,-0.164573 0.0428,-0.106176 0.0236,0.0584 0.0236,0.153956 0,0.212352 -0.0236,0.0584 -0.0428,0.01062 -0.0428,-0.106176 z M -10.509483,61.078055 c 0.8962171,-0.01375 2.3869282,-0.01377 3.3126914,-4.4e-5 0.9257631,0.01372 0.1924946,0.02497 -1.6294857,0.025 -1.8219807,2.4e-5 -2.5794227,-0.0112 -1.6832057,-0.02495 z m 18.9898949,-5e-5 c 1.0628218,-0.01348 2.8019851,-0.01348 3.8648071,0 1.062821,0.01348 0.19324,0.02451 -1.932404,0.02451 -2.1256434,0 -2.9952249,-0.01103 -1.9324031,-0.02451 z m 118.0677181,0 c 1.06282,-0.01348 2.80199,-0.01348 3.86481,0 1.06282,0.01348 0.19324,0.02451 -1.9324,0.02451 -2.12565,0 -2.99523,-0.01103 -1.93241,-0.02451 z M 64.201581,58.277744 c 0.128472,-0.01946 0.338701,-0.01946 0.467174,0 0.128473,0.01946 0.02336,0.03539 -0.233587,0.03539 -0.256946,0 -0.36206,-0.01592 -0.233587,-0.03539 z"
       id="path5" /><path
       style="fill:#677637;fill-opacity:1"
       d="m 63.437113,111.79045 c 0.128473,-0.0195 0.338702,-0.0195 0.467175,0 0.128473,0.0195 0.02336,0.0354 -0.233588,0.0354 -0.256945,0 -0.36206,-0.0159 -0.233587,-0.0354 z m 1.15201,0.003 c 0.06132,-0.0245 0.134578,-0.0215 0.162803,0.007 0.02823,0.0282 -0.02194,0.0483 -0.111485,0.0446 -0.09895,-0.004 -0.119078,-0.0242 -0.05132,-0.0513 z m 1.523626,-1.69705 c 0.0584,-0.0236 0.153955,-0.0236 0.212352,0 0.0584,0.0236 0.01062,0.0428 -0.106176,0.0428 -0.116794,0 -0.164573,-0.0193 -0.106176,-0.0428 z m 0.594585,0 c 0.0584,-0.0236 0.153956,-0.0236 0.212352,0 0.0584,0.0236 0.01062,0.0428 -0.106176,0.0428 -0.116793,0 -0.164573,-0.0193 -0.106176,-0.0428 z M -5.5141773,85.052467 c 6e-7,-13.174319 0.00982,-18.551172 0.021825,-11.948562 0.012003,6.60261 0.012003,17.381598 -1e-6,23.953307 -0.012004,6.571708 -0.021824,1.169574 -0.021824,-12.004745 z M 6.5469212,96.179713 c -2e-6,-7.054334 0.010039,-9.952755 0.022313,-6.440936 0.012274,3.51182 0.012276,9.283548 3.4e-6,12.826063 -0.012272,3.54251 -0.022314,0.66921 -0.022316,-6.385127 z M 151.42126,107.38482 c 0.004,-0.099 0.0242,-0.11908 0.0513,-0.0513 0.0245,0.0613 0.0215,0.13458 -0.007,0.16281 -0.0282,0.0282 -0.0483,-0.0219 -0.0446,-0.11149 z m -106.399063,-1.50062 -0.335767,-0.361 0.360999,0.33577 c 0.335725,0.31226 0.400031,0.38623 0.335766,0.38623 -0.01388,0 -0.176326,-0.16245 -0.360998,-0.361 z M 151.5062,105.68601 c 0.004,-0.099 0.0242,-0.11908 0.0513,-0.0513 0.0245,0.0613 0.0215,0.13457 -0.007,0.1628 -0.0282,0.0282 -0.0483,-0.0219 -0.0446,-0.11148 z m -7.4815,-1.26704 c 0.10972,-0.11679 0.21861,-0.21235 0.24197,-0.21235 0.0234,0 -0.0473,0.0956 -0.15703,0.21235 -0.10972,0.11679 -0.2186,0.21235 -0.24196,0.21235 -0.0234,0 0.0473,-0.0956 0.15702,-0.21235 z m 7.56644,-0.43178 c 0.004,-0.099 0.0242,-0.11908 0.0513,-0.0513 0.0245,0.0613 0.0215,0.13458 -0.007,0.1628 -0.0282,0.0282 -0.0483,-0.0219 -0.0446,-0.11148 z m 0.16988,-3.31269 c 0.004,-0.0989 0.0242,-0.11908 0.0513,-0.0513 0.0245,0.0613 0.0215,0.13458 -0.007,0.1628 -0.0282,0.0282 -0.0483,-0.0219 -0.0446,-0.11148 z m 0.0849,-1.698819 c 0.004,-0.09895 0.0242,-0.119078 0.0513,-0.05132 0.0245,0.06132 0.0215,0.134578 -0.007,0.162803 -0.0282,0.02823 -0.0483,-0.02194 -0.0446,-0.111485 z M 81.684857,98.466036 c 0.0041,-0.09895 0.0242,-0.119078 0.05132,-0.05132 0.02454,0.06132 0.02152,0.134578 -0.0067,0.162803 -0.02823,0.02822 -0.0483,-0.02194 -0.04461,-0.111485 z M 151.9309,97.276865 c 0.004,-0.09895 0.0242,-0.119078 0.0513,-0.05132 0.0245,0.06132 0.0215,0.134578 -0.007,0.162803 -0.0282,0.02822 -0.0483,-0.02194 -0.0446,-0.111485 z M 67.816874,96.164159 c 0.06132,-0.02454 0.134578,-0.02152 0.162803,0.0067 0.02823,0.02822 -0.02194,0.0483 -0.111485,0.04461 -0.09895,-0.0041 -0.119078,-0.0242 -0.05132,-0.05132 z M 79.486249,94.82066 c 0.0017,-0.140152 0.02077,-0.187204 0.0423,-0.104559 0.02154,0.08264 0.02012,0.197314 -0.0031,0.254822 -0.02327,0.05751 -0.04089,-0.01011 -0.03916,-0.150263 z m 72.614541,-0.856487 c 0.004,-0.09895 0.0242,-0.119078 0.0513,-0.05132 0.0245,0.06132 0.0215,0.134578 -0.007,0.162803 -0.0282,0.02822 -0.0483,-0.02194 -0.0446,-0.111485 z M 54.843563,93.709351 c 0.0041,-0.09895 0.0242,-0.119078 0.05132,-0.05132 0.02454,0.06132 0.02152,0.134578 -0.0067,0.162803 -0.02822,0.02823 -0.0483,-0.02194 -0.04461,-0.111485 z m 23.756474,-1.114757 c 0.105659,-0.02032 0.258553,-0.01955 0.339764,0.0017 0.08121,0.02126 -0.0052,0.03788 -0.192107,0.03694 -0.18687,-9.43e-4 -0.253315,-0.01834 -0.147657,-0.03866 z m 4.288521,0.0015 c 0.08176,-0.02136 0.215537,-0.02136 0.297293,0 0.08176,0.02136 0.01486,0.03885 -0.148647,0.03885 -0.163511,0 -0.230402,-0.01748 -0.148646,-0.03885 z m -9.301018,-0.08264 c 0.0584,-0.02356 0.153955,-0.02356 0.212352,0 0.0584,0.02356 0.01062,0.04284 -0.106176,0.04284 -0.116794,0 -0.164573,-0.01928 -0.106176,-0.04284 z m 0.721996,-0.0023 c 0.08176,-0.02137 0.215538,-0.02137 0.297293,0 0.08176,0.02137 0.01487,0.03884 -0.148646,0.03884 -0.163511,0 -0.230402,-0.01748 -0.148647,-0.03884 z m 7.005722,-8.07213 c 0.15079,-0.01876 0.418354,-0.01907 0.594586,-6.85e-4 0.176232,0.01839 0.05286,0.03374 -0.274163,0.03412 -0.327022,3.77e-4 -0.471212,-0.01467 -0.320423,-0.03343 z m 6.717527,0.0033 c 0.06132,-0.02454 0.134578,-0.02152 0.162804,0.0067 0.02823,0.02823 -0.02194,0.0483 -0.111485,0.04461 -0.09895,-0.0041 -0.119079,-0.0242 -0.05132,-0.05132 z M 64.244051,82.745281 c 0.0584,-0.02356 0.153955,-0.02356 0.212352,0 0.0584,0.02356 0.01062,0.04284 -0.106176,0.04284 -0.116794,0 -0.164573,-0.01928 -0.106176,-0.04284 z M 6.5466627,71.376997 c -3e-6,-5.652811 0.010152,-7.977838 0.022566,-5.166726 0.012414,2.811111 0.012417,7.436138 5.4e-6,10.277838 -0.012411,2.841699 -0.022568,0.541699 -0.022571,-5.111112 z m 59.3165723,9.582757 c 0.06132,-0.02454 0.134578,-0.02152 0.162803,0.0067 0.02823,0.02823 -0.02194,0.0483 -0.111485,0.04461 -0.09895,-0.0041 -0.119078,-0.0242 -0.05132,-0.05132 z M 87.21901,77.110501 c 0,-0.163511 0.01748,-0.230401 0.03885,-0.148646 0.02137,0.08176 0.02137,0.215537 0,0.297293 -0.02137,0.08176 -0.03885,0.01487 -0.03885,-0.148647 z m -54.623233,-2.12352 c 0,-0.116793 0.01928,-0.164573 0.04284,-0.106176 0.02356,0.0584 0.02356,0.153955 0,0.212352 -0.02356,0.0584 -0.04284,0.01062 -0.04284,-0.106176 z M 150.6635,74.8171 c 0,-0.116794 0.0193,-0.164573 0.0428,-0.106176 0.0236,0.0584 0.0236,0.153955 0,0.212352 -0.0236,0.0584 -0.0428,0.01062 -0.0428,-0.106176 z m -12.73798,-1.996109 c 0.002,-0.140153 0.0208,-0.187204 0.0423,-0.10456 0.0215,0.08264 0.0201,0.197315 -0.003,0.254823 -0.0233,0.05751 -0.0409,-0.01011 -0.0392,-0.150263 z M 32.510836,72.77852 c 0,-0.116793 0.01928,-0.164573 0.04284,-0.106176 0.02356,0.0584 0.02356,0.153955 0,0.212352 -0.02356,0.0584 -0.04284,0.01062 -0.04284,-0.106176 z M 19.857804,72.566168 c 0.0017,-0.140152 0.02077,-0.187204 0.0423,-0.104559 0.02154,0.08264 0.02012,0.197315 -0.0031,0.254822 -0.02327,0.05751 -0.04089,-0.01011 -0.03916,-0.150263 z m 130.720756,0.04247 c 0,-0.116794 0.0193,-0.164573 0.0428,-0.106176 0.0236,0.0584 0.0236,0.153955 0,0.212352 -0.0236,0.0584 -0.0428,0.01062 -0.0428,-0.106176 z M 32.425896,70.570059 c 0,-0.116793 0.01928,-0.164573 0.04284,-0.106176 0.02356,0.0584 0.02356,0.153955 0,0.212352 -0.02356,0.0584 -0.04284,0.01062 -0.04284,-0.106176 z M 150.49362,70.400178 c 0,-0.116794 0.0193,-0.164573 0.0428,-0.106176 0.0236,0.0584 0.0236,0.153955 0,0.212352 -0.0236,0.0584 -0.0428,0.01062 -0.0428,-0.106176 z M 32.340955,68.361598 c 0,-0.116793 0.01928,-0.164573 0.04284,-0.106176 0.02356,0.0584 0.02356,0.153955 0,0.212352 -0.02356,0.0584 -0.04284,0.01062 -0.04284,-0.106176 z M 150.40867,68.191717 c 0,-0.116794 0.0193,-0.164573 0.0428,-0.106176 0.0236,0.0584 0.0236,0.153955 0,0.212352 -0.0236,0.0584 -0.0428,0.01062 -0.0428,-0.106176 z M 32.256014,66.153137 c 0,-0.116793 0.01928,-0.164573 0.04284,-0.106176 0.02356,0.0584 0.02356,0.153955 0,0.212352 -0.02356,0.0584 -0.04284,0.01062 -0.04284,-0.106176 z M 150.32373,65.983256 c 0,-0.116794 0.0193,-0.164573 0.0428,-0.106176 0.0236,0.0584 0.0236,0.153955 0,0.212352 -0.0236,0.0584 -0.0428,0.01062 -0.0428,-0.106176 z M 32.171073,63.944676 c 0,-0.116793 0.01928,-0.164573 0.04284,-0.106176 0.02356,0.0584 0.02356,0.153955 0,0.212352 -0.02356,0.0584 -0.04284,0.01062 -0.04284,-0.106176 z M 150.23879,63.774795 c 0,-0.116794 0.0193,-0.164573 0.0429,-0.106176 0.0236,0.0584 0.0236,0.153955 0,0.212352 -0.0236,0.0584 -0.0429,0.01062 -0.0429,-0.106176 z M 32.086132,61.736215 c 0,-0.116793 0.01928,-0.164573 0.04284,-0.106176 0.02356,0.0584 0.02356,0.153955 0,0.212352 -0.02356,0.0584 -0.04284,0.01062 -0.04284,-0.106176 z m 118.061018,-0.21943 c 0.004,-0.09895 0.0242,-0.119079 0.0513,-0.05132 0.0245,0.06132 0.0215,0.134578 -0.007,0.162804 -0.0282,0.02822 -0.0483,-0.02194 -0.0446,-0.111485 z M 14.384788,61.081554 c 0.105659,-0.02032 0.258553,-0.01955 0.339763,0.0017 0.08121,0.02126 -0.0052,0.03788 -0.192107,0.03694 -0.186869,-9.43e-4 -0.253315,-0.01834 -0.147656,-0.03866 z m 118.110372,-8.76e-4 c 0.12911,-0.01952 0.32023,-0.019 0.4247,0.0012 0.10447,0.02016 -0.001,0.03614 -0.23475,0.0355 -0.23359,-6.37e-4 -0.31907,-0.01713 -0.18995,-0.03666 z M 31.994486,59.563146 c 0.0041,-0.09895 0.0242,-0.119078 0.05132,-0.05132 0.02454,0.06132 0.02152,0.134578 -0.0067,0.162803 -0.02823,0.02822 -0.0483,-0.02194 -0.04461,-0.111485 z"
       id="path4" /><path
       style="fill:#677637;fill-opacity:1"
       d="m 64.203197,111.79243 c 0.08264,-0.0215 0.197315,-0.0201 0.254823,0.003 0.05751,0.0233 -0.01011,0.0409 -0.150263,0.0391 -0.140153,-0.002 -0.187205,-0.0208 -0.10456,-0.0423 z m 1.660038,-1.69798 c 0.06132,-0.0245 0.134578,-0.0215 0.162803,0.007 0.02823,0.0282 -0.02194,0.0483 -0.111485,0.0446 -0.09895,-0.004 -0.119078,-0.0242 -0.05132,-0.0513 z m 1.189171,0 c 0.06132,-0.0245 0.134578,-0.0215 0.162804,0.007 0.02823,0.0282 -0.02194,0.0483 -0.111485,0.0446 -0.09895,-0.004 -0.119079,-0.0242 -0.05132,-0.0513 z m 84.283914,-1.26564 c 0.004,-0.099 0.0242,-0.11907 0.0513,-0.0513 0.0245,0.0613 0.0215,0.13457 -0.007,0.1628 -0.0282,0.0282 -0.0483,-0.0219 -0.0446,-0.11149 z m -26.73674,-0.41762 c 4.8e-4,-0.28031 0.0163,-0.38474 0.0352,-0.23207 0.0189,0.15267 0.0185,0.38201 -8.7e-4,0.50965 -0.0194,0.12763 -0.0348,0.003 -0.0344,-0.27758 z m 0.006,-1.48646 c 0,-0.53726 0.0138,-0.75704 0.0307,-0.48841 0.0169,0.26862 0.0169,0.70819 0,0.97681 -0.0169,0.26863 -0.0307,0.0489 -0.0307,-0.4884 z m 26.81588,0.20527 c 0.004,-0.099 0.0242,-0.11908 0.0513,-0.0513 0.0245,0.0613 0.0215,0.13458 -0.007,0.1628 -0.0282,0.0282 -0.0483,-0.0219 -0.0446,-0.11148 z m -26.81291,-2.71103 c 9e-5,-0.84091 0.0128,-1.17343 0.0282,-0.73893 0.0155,0.4345 0.0154,1.12252 -1.6e-4,1.52893 -0.0155,0.40641 -0.0282,0.0509 -0.0281,-0.79 z m 0.005,-8.069375 c 1e-5,-3.457091 0.0105,-4.858978 0.0234,-3.115305 0.0128,1.743673 0.0128,4.572202 -2e-5,6.28562 -0.0128,1.71342 -0.0233,0.286775 -0.0233,-3.170315 z m 27.0625,5.768895 c 0.004,-0.0989 0.0242,-0.11908 0.0513,-0.0513 0.0245,0.0613 0.0215,0.13458 -0.007,0.16281 -0.0282,0.0282 -0.0483,-0.022 -0.0446,-0.11149 z m 0.0849,-1.69882 c 0.004,-0.099 0.0242,-0.11907 0.0513,-0.0513 0.0245,0.0613 0.0215,0.13457 -0.007,0.1628 -0.0282,0.0282 -0.0483,-0.0219 -0.0446,-0.11149 z M 81.691563,98.175822 c 0,-0.116794 0.01928,-0.164573 0.04284,-0.106176 0.02356,0.0584 0.02356,0.153955 0,0.212352 -0.02356,0.0584 -0.04284,0.01062 -0.04284,-0.106176 z m -26.848,-1.493543 c 0.0041,-0.09895 0.0242,-0.119078 0.05132,-0.05132 0.02454,0.06132 0.02152,0.134578 -0.0067,0.162803 -0.02822,0.02823 -0.0483,-0.02194 -0.04461,-0.111485 z m 97.172277,-1.274112 c 0.004,-0.09895 0.0242,-0.119078 0.0513,-0.05132 0.0245,0.06132 0.0215,0.134578 -0.007,0.162803 -0.0282,0.02823 -0.0483,-0.02194 -0.0446,-0.111485 z M 64.520109,94.735719 c 0.109721,-0.116793 0.218606,-0.212352 0.241964,-0.212352 0.02336,0 -0.0473,0.09556 -0.157024,0.212352 -0.109722,0.116794 -0.218606,0.212352 -0.241964,0.212352 -0.02336,0 0.0473,-0.09556 0.157024,-0.212352 z m 14.593892,-2.139074 c 0.06132,-0.02454 0.134578,-0.02152 0.162803,0.0067 0.02823,0.02822 -0.02194,0.0483 -0.111485,0.04461 -0.09895,-0.0041 -0.119078,-0.0242 -0.05132,-0.05132 z m 2.882678,-0.0034 c 0.151832,-0.01884 0.400284,-0.01884 0.552116,0 0.151831,0.01884 0.02761,0.03426 -0.276058,0.03426 -0.303663,0 -0.427889,-0.01542 -0.276058,-0.03426 z m -8.789756,-0.08236 c 0.08264,-0.02154 0.197314,-0.02012 0.254822,0.0031 0.05751,0.02327 -0.01011,0.04089 -0.150263,0.03916 -0.140152,-0.0017 -0.187204,-0.02077 -0.104559,-0.0423 z m 1.612258,3.12e-4 c 0.08176,-0.02137 0.215538,-0.02137 0.297293,0 0.08176,0.02137 0.01487,0.03884 -0.148646,0.03884 -0.163511,0 -0.230402,-0.01748 -0.148647,-0.03884 z m 49.788049,-3.721314 c 1.2e-4,-0.700762 0.0133,-0.976134 0.0292,-0.611939 0.016,0.364195 0.0159,0.937546 -2.2e-4,1.274112 -0.0161,0.336566 -0.0291,0.03859 -0.029,-0.662173 z m -58.728069,0 c 0.109722,-0.116794 0.218606,-0.212352 0.241965,-0.212352 0.02336,0 -0.0473,0.09556 -0.157024,0.212352 -0.109722,0.116793 -0.218606,0.212352 -0.241965,0.212352 -0.02336,0 0.0473,-0.09556 0.157024,-0.212352 z m 27.775644,-0.584186 c 0,-0.01764 0.06689,-0.08453 0.148646,-0.148646 0.134721,-0.105655 0.137726,-0.102651 0.03207,0.03207 -0.110964,0.14149 -0.180716,0.186486 -0.180716,0.116576 z m 30.955085,-2.728506 c 5e-5,-1.121219 0.0121,-1.568151 0.0269,-0.993183 0.0147,0.574968 0.0147,1.492328 -1e-4,2.038579 -0.0148,0.546251 -0.0268,0.07582 -0.0268,-1.045396 z m -107.193455,0.106176 -0.335767,-0.360998 0.360999,0.335766 c 0.335725,0.31226 0.400031,0.386231 0.335766,0.386231 -0.01388,0 -0.176326,-0.16245 -0.360998,-0.360999 z m 63.008839,-1.143834 c 0.128473,-0.01946 0.338702,-0.01946 0.467175,0 0.128473,0.01946 0.02336,0.03538 -0.233587,0.03538 -0.256946,0 -0.362061,-0.01592 -0.233588,-0.03538 z M 7.9336458,83.332542 c 0.7621004,-0.01409 1.985248,-0.01406 2.7181062,6.2e-5 0.732857,0.01413 0.109321,0.02566 -1.3856377,0.02562 -1.4949581,-3.4e-5 -2.094569,-0.01159 -1.3324685,-0.02568 z m 118.0677242,0 c 0.7621,-0.01409 1.98524,-0.01406 2.7181,6.2e-5 0.73286,0.01413 0.10932,0.02566 -1.38564,0.02562 -1.49495,-3.4e-5 -2.09456,-0.01159 -1.33246,-0.02568 z M 63.904288,82.745281 c 0.0584,-0.02356 0.153955,-0.02356 0.212352,0 0.0584,0.02356 0.01062,0.04284 -0.106176,0.04284 -0.116794,0 -0.164573,-0.01928 -0.106176,-0.04284 z M 8.0077584,81.63376 c 0.8028624,-0.01395 2.1406796,-0.01397 2.9729286,-5.3e-5 0.832248,0.01392 0.17536,0.02533 -1.4597502,0.02536 -1.6351105,2.9e-5 -2.3160408,-0.01136 -1.5131784,-0.02531 z M 124.62875,81.633599 c -0.0217,-0.03504 0.8265,-0.05396 1.88492,-0.04206 3.68245,0.04143 4.02968,0.06896 1.10124,0.0873 -1.62068,0.01015 -2.96445,-0.01021 -2.98616,-0.04525 z m -0.0153,-6.009562 c 1e-5,-3.223503 0.0106,-4.529857 0.0235,-2.903007 0.0129,1.626849 0.0129,4.264262 -1e-5,5.860916 -0.0129,1.596654 -0.0235,0.265595 -0.0235,-2.957909 z m -56.933583,5.415501 c 0.406415,-0.01554 1.094435,-0.01561 1.528935,-1.62e-4 0.434499,0.01545 0.101978,0.02816 -0.738936,0.02825 -0.840914,8.9e-5 -1.196413,-0.01255 -0.789999,-0.02809 z m -35.08408,-5.712794 c 0,-0.116793 0.01928,-0.164572 0.04284,-0.106176 0.02356,0.0584 0.02356,0.153956 0,0.212352 -0.02356,0.0584 -0.04284,0.01062 -0.04284,-0.106176 z M 150.6568,75.107314 c 0.004,-0.09895 0.0242,-0.119078 0.0513,-0.05132 0.0245,0.06132 0.0215,0.134578 -0.007,0.162803 -0.0282,0.02822 -0.0483,-0.02194 -0.0446,-0.111485 z M 57.816491,74.172965 c 0.0041,-0.09895 0.0242,-0.119078 0.05132,-0.05132 0.02454,0.06132 0.02152,0.134578 -0.0067,0.162803 -0.02822,0.02822 -0.0483,-0.02194 -0.04461,-0.111485 z m 30.784336,-0.714918 c 0.08456,-0.09343 0.172852,-0.169882 0.196211,-0.169882 0.02336,0 -0.02671,0.07645 -0.11127,0.169882 -0.08456,0.09343 -0.172853,0.169881 -0.196211,0.169881 -0.02336,0 0.02671,-0.07645 0.11127,-0.169881 z M 32.504131,73.068735 c 0.0041,-0.09895 0.0242,-0.119079 0.05132,-0.05132 0.02454,0.06132 0.02152,0.134578 -0.0067,0.162803 -0.02822,0.02823 -0.0483,-0.02194 -0.04461,-0.111484 z M 19.854656,72.948402 c 0,-0.116794 0.01928,-0.164573 0.04284,-0.106176 0.02356,0.0584 0.02356,0.153955 0,0.212352 -0.02356,0.0584 -0.04284,0.01062 -0.04284,-0.106176 z m 130.717194,-0.04955 c 0.004,-0.09895 0.0242,-0.119078 0.0513,-0.05132 0.0245,0.06132 0.0215,0.134578 -0.007,0.162803 -0.0282,0.02822 -0.0483,-0.02194 -0.0446,-0.111485 z M 91.430418,72.12591 c 0.06132,-0.02454 0.134578,-0.02152 0.162803,0.0067 0.02823,0.02823 -0.02194,0.0483 -0.111485,0.04461 -0.09895,-0.0041 -0.119078,-0.0242 -0.05132,-0.05132 z M 32.41919,70.860274 c 0.0041,-0.09895 0.0242,-0.119079 0.05132,-0.05132 0.02454,0.06132 0.02152,0.134578 -0.0067,0.162803 -0.02822,0.02823 -0.0483,-0.02194 -0.04461,-0.111484 z m 13.505588,-0.08494 c 0.0041,-0.09895 0.0242,-0.119079 0.05132,-0.05132 0.02454,0.06132 0.02152,0.134579 -0.0067,0.162804 -0.02822,0.02822 -0.0483,-0.02194 -0.04461,-0.111485 z m 104.562132,-0.08494 c 0.004,-0.09895 0.0242,-0.119078 0.0513,-0.05132 0.0245,0.06132 0.0215,0.134578 -0.007,0.162803 -0.0282,0.02822 -0.0483,-0.02194 -0.0446,-0.111485 z m -25.88065,-2.031501 c 1.5e-4,-0.607327 0.0137,-0.844633 0.0301,-0.527347 0.0164,0.317285 0.0163,0.814189 -2.7e-4,1.10423 -0.0165,0.290041 -0.0299,0.03044 -0.0298,-0.576883 z m -78.681482,0.84233 c 0.0041,-0.09895 0.0242,-0.119079 0.05132,-0.05132 0.02454,0.06132 0.02152,0.134578 -0.0067,0.162804 -0.02822,0.02822 -0.0483,-0.02194 -0.04461,-0.111485 z m -13.590529,-0.84941 c 0.0041,-0.09895 0.0242,-0.119079 0.05132,-0.05132 0.02454,0.06132 0.02152,0.134578 -0.0067,0.162803 -0.02823,0.02823 -0.0483,-0.02194 -0.04461,-0.111484 z M 150.40197,68.481931 c 0.004,-0.09895 0.0242,-0.119078 0.0513,-0.05132 0.0245,0.06132 0.0215,0.134578 -0.007,0.162803 -0.0282,0.02822 -0.0483,-0.02194 -0.0446,-0.111485 z m -25.79042,-4.282432 c 0,-1.65847 0.0114,-2.336934 0.0253,-1.5077 0.0139,0.829235 0.0139,2.186164 0,3.015399 -0.0139,0.829235 -0.0253,0.15077 -0.0253,-1.507699 z m -92.362242,2.243853 c 0.0041,-0.09895 0.0242,-0.119079 0.05132,-0.05132 0.02454,0.06132 0.02152,0.134578 -0.0067,0.162803 -0.02822,0.02823 -0.0483,-0.02194 -0.04461,-0.111484 z M 150.31703,66.27347 c 0.004,-0.09895 0.0242,-0.119078 0.0513,-0.05132 0.0245,0.06132 0.0215,0.134578 -0.007,0.162803 -0.0282,0.02822 -0.0483,-0.02194 -0.0446,-0.111485 z m -6.3837,-0.863565 -0.20592,-0.233587 0.23359,0.205923 c 0.21832,0.192466 0.27254,0.261251 0.20592,0.261251 -0.0152,0 -0.12033,-0.105114 -0.23359,-0.233587 z m -118.072123,0 c -0.105655,-0.134721 -0.102651,-0.137725 0.03207,-0.03207 0.14149,0.110964 0.186486,0.180717 0.116577,0.180717 -0.01764,0 -0.08453,-0.06689 -0.148647,-0.148647 z m 6.30316,-1.175014 c 0.0041,-0.09895 0.0242,-0.119079 0.05132,-0.05132 0.02454,0.06132 0.02152,0.134578 -0.0067,0.162803 -0.02822,0.02823 -0.0483,-0.02194 -0.04461,-0.111484 z M 150.23209,64.065009 c 0.004,-0.09895 0.0242,-0.119078 0.0513,-0.05132 0.0245,0.06132 0.0215,0.134578 -0.007,0.162803 -0.0282,0.02822 -0.0483,-0.02194 -0.0446,-0.111485 z M 32.079427,62.02643 c 0.0041,-0.09895 0.0242,-0.119079 0.05132,-0.05132 0.02454,0.06132 0.02152,0.134578 -0.0067,0.162803 -0.02823,0.02823 -0.0483,-0.02194 -0.04461,-0.111484 z m 27.556585,-0.03539 c 0.08456,-0.09344 0.172853,-0.169882 0.196211,-0.169882 0.02336,0 -0.02671,0.07645 -0.11127,0.169882 -0.08456,0.09343 -0.172852,0.169881 -0.196211,0.169881 -0.02336,0 0.02671,-0.07645 0.11127,-0.169881 z m 90.517838,-0.169882 c 0,-0.116794 0.0193,-0.164573 0.0428,-0.106176 0.0236,0.0584 0.0236,0.153955 0,0.212352 -0.0236,0.0584 -0.0428,0.01062 -0.0428,-0.106176 z M 14.893443,61.085375 c 0.0584,-0.02356 0.153955,-0.02356 0.212352,0 0.0584,0.02356 0.01062,0.04284 -0.106176,0.04284 -0.116794,0 -0.164573,-0.01928 -0.106176,-0.04284 z m 118.237597,0 c 0.0584,-0.02356 0.15396,-0.02356 0.21236,0 0.0584,0.02356 0.0106,0.04284 -0.10618,0.04284 -0.11679,0 -0.16457,-0.01928 -0.10618,-0.04284 z M 65.732132,59.978536 c 0.08264,-0.02154 0.197314,-0.02012 0.254822,0.0031 0.05751,0.02327 -0.01011,0.04089 -0.150263,0.03916 -0.140152,-0.0017 -0.187204,-0.02077 -0.104559,-0.0423 z M 31.994486,59.817969 c 0.0041,-0.09895 0.0242,-0.119079 0.05132,-0.05132 0.02454,0.06132 0.02152,0.134578 -0.0067,0.162803 -0.02823,0.02823 -0.0483,-0.02194 -0.04461,-0.111484 z m 118.067724,-0.183878 -0.007,-0.190955 -22.06337,-0.02156 -22.06338,-0.02156 22.06604,-0.02107 c 19.32864,-0.01846 22.07197,-0.0056 22.11386,0.103536 0.0263,0.06854 0.0281,0.173649 0.004,0.233587 -0.0241,0.05994 -0.0468,0.02305 -0.0505,-0.08198 z M -1.068591,59.37911 c 6.0887078,-0.01203 16.026782,-0.01203 22.08461,1e-6 6.057827,0.01203 1.076157,0.02187 -11.0703782,0.02187 -12.1465352,0 -17.1029395,-0.0098 -11.0142318,-0.02187 z m 62.854667,-1.013611 c 0.06132,-0.02454 0.134578,-0.02152 0.162804,0.0067 0.02822,0.02822 -0.02194,0.0483 -0.111485,0.04461 -0.09895,-0.0041 -0.119079,-0.0242 -0.05132,-0.05132 z"
       id="path3" /><path
       style="fill:#677637;fill-opacity:1"
       d="m 61.786076,111.70833 c 0.06132,-0.0245 0.134578,-0.0215 0.162804,0.007 0.02822,0.0282 -0.02194,0.0483 -0.111485,0.0446 -0.09895,-0.004 -0.119079,-0.0242 -0.05132,-0.0513 z m 89.465304,-1.43552 c 0.004,-0.099 0.0242,-0.11908 0.0513,-0.0513 0.0245,0.0613 0.0215,0.13458 -0.007,0.1628 -0.0282,0.0282 -0.0483,-0.0219 -0.0446,-0.11148 z m -85.642967,-0.17836 c 0.06132,-0.0245 0.134578,-0.0215 0.162803,0.007 0.02823,0.0282 -0.02194,0.0483 -0.111485,0.0446 -0.09895,-0.004 -0.119078,-0.0242 -0.05132,-0.0513 z m 67.527937,-1.10423 c 0.0613,-0.0245 0.13458,-0.0215 0.16281,0.007 0.0282,0.0282 -0.022,0.0483 -0.11149,0.0446 -0.099,-0.004 -0.11908,-0.0242 -0.0513,-0.0513 z m 18.19997,-0.41623 c 0.004,-0.0989 0.0242,-0.11908 0.0513,-0.0513 0.0245,0.0613 0.0215,0.13458 -0.007,0.16281 -0.0282,0.0282 -0.0483,-0.022 -0.0446,-0.11149 z M 77.261229,107.827 c 0,-0.0176 0.06689,-0.0845 0.148647,-0.14864 0.134721,-0.10566 0.137725,-0.10265 0.03207,0.0321 -0.110964,0.14149 -0.180717,0.18648 -0.180717,0.11657 z m 0.424704,-0.41921 c 0,-0.0146 0.124226,-0.13884 0.276058,-0.27606 l 0.276058,-0.24948 -0.249479,0.27606 c -0.232549,0.25733 -0.302637,0.3151 -0.302637,0.24948 z m -19.077281,-0.33442 -0.161811,-0.19112 0.191117,0.16182 c 0.179602,0.15206 0.229785,0.22042 0.161811,0.22042 -0.01612,0 -0.102121,-0.086 -0.191117,-0.19112 z m 17.633288,-0.87064 c 0.109722,-0.1168 0.218606,-0.21235 0.241965,-0.21235 0.02336,0 -0.0473,0.0956 -0.157024,0.21235 -0.109722,0.11679 -0.218606,0.21235 -0.241965,0.21235 -0.02336,0 0.0473,-0.0956 0.157024,-0.21235 z m 75.26426,-0.94143 c 0.004,-0.099 0.0242,-0.11908 0.0513,-0.0513 0.0245,0.0613 0.0215,0.13458 -0.007,0.16281 -0.0282,0.0282 -0.0483,-0.0219 -0.0446,-0.11149 z M 44.378303,105.1622 c -0.105655,-0.13472 -0.102651,-0.13772 0.03207,-0.0321 0.14149,0.11097 0.186486,0.18072 0.116576,0.18072 -0.01764,0 -0.08453,-0.0669 -0.148646,-0.14865 z m 22.843985,-0.67384 c 0.06132,-0.0245 0.134578,-0.0215 0.162803,0.007 0.02822,0.0282 -0.02194,0.0483 -0.111485,0.0446 -0.09895,-0.004 -0.119078,-0.0242 -0.05132,-0.0513 z m 84.368852,-0.92588 c 0.004,-0.0989 0.0242,-0.11907 0.0513,-0.0513 0.0245,0.0613 0.0215,0.13457 -0.007,0.1628 -0.0282,0.0282 -0.0483,-0.0219 -0.0446,-0.11149 z m -6.24985,-0.46009 c 0.0846,-0.0934 0.17285,-0.16988 0.19621,-0.16988 0.0234,0 -0.0267,0.0764 -0.11127,0.16988 -0.0846,0.0934 -0.17286,0.16988 -0.19622,0.16988 -0.0233,0 0.0267,-0.0765 0.11128,-0.16988 z m 6.33479,-1.23872 c 0.004,-0.099 0.0242,-0.11908 0.0513,-0.0513 0.0245,0.0613 0.0215,0.13458 -0.007,0.1628 -0.0282,0.0282 -0.0483,-0.0219 -0.0446,-0.11148 z M 62.328207,98.812878 c 0.0017,-0.140152 0.02077,-0.187204 0.0423,-0.104559 0.02154,0.08264 0.02012,0.197314 -0.0031,0.254822 -0.02327,0.05751 -0.04089,-0.01011 -0.03916,-0.150263 z m 89.517753,-0.261901 c 0.004,-0.09895 0.0242,-0.119078 0.0513,-0.05132 0.0245,0.06132 0.0215,0.134578 -0.007,0.162803 -0.0282,0.02822 -0.0483,-0.02194 -0.0446,-0.111485 z M 81.716109,95.287834 c 0,-1.518317 0.01152,-2.139446 0.0256,-1.380288 0.01408,0.759159 0.01408,2.001418 0,2.760577 -0.01408,0.759158 -0.0256,0.138028 -0.0256,-1.380289 z m -19.387902,2.250932 c 0.0017,-0.140152 0.02077,-0.187204 0.0423,-0.10456 0.02154,0.08264 0.02012,0.197315 -0.0031,0.254823 -0.02327,0.05751 -0.04089,-0.01011 -0.03916,-0.150263 z m 8.296805,-0.106176 c -0.105655,-0.134721 -0.102651,-0.137725 0.03207,-0.03207 0.08176,0.06412 0.148646,0.131008 0.148646,0.148646 0,0.06991 -0.06975,0.02491 -0.180716,-0.116576 z M 151.9309,96.852161 c 0.004,-0.09895 0.0242,-0.119078 0.0513,-0.05132 0.0245,0.06132 0.0215,0.134578 -0.007,0.162803 -0.0282,0.02823 -0.0483,-0.02194 -0.0446,-0.111485 z m 0.0849,-1.698816 c 0.004,-0.09895 0.0242,-0.119079 0.0513,-0.05132 0.0245,0.06132 0.0215,0.134578 -0.007,0.162804 -0.0282,0.02822 -0.0483,-0.02194 -0.0446,-0.111485 z M 54.843563,93.284647 c 0.0041,-0.09895 0.0242,-0.119078 0.05132,-0.05132 0.02454,0.06132 0.02152,0.134578 -0.0067,0.162803 -0.02822,0.02823 -0.0483,-0.02194 -0.04461,-0.111485 z m 17.938656,-0.773782 c 0.08264,-0.02154 0.197314,-0.02012 0.254822,0.0031 0.05751,0.02327 -0.01011,0.04089 -0.150263,0.03916 -0.140152,-0.0017 -0.187204,-0.02077 -0.104559,-0.0423 z m 2.589077,-0.0011 c 0.105115,-0.02025 0.27712,-0.02025 0.382234,0 0.105114,0.02025 0.01911,0.03681 -0.191117,0.03681 -0.210228,0 -0.296231,-0.01656 -0.191117,-0.03681 z m 16.584693,-2.69023 c 0,-0.01764 0.06689,-0.08453 0.148646,-0.148647 0.134721,-0.105655 0.137725,-0.102651 0.03207,0.03207 -0.110964,0.14149 -0.180716,0.186486 -0.180716,0.116577 z m 1.10423,-1.02969 c 0.300965,-0.303664 0.56632,-0.552116 0.589678,-0.552116 0.02336,0 -0.203773,0.248452 -0.504737,0.552116 -0.300964,0.303663 -0.566319,0.552115 -0.589678,0.552115 -0.02336,0 0.203773,-0.248452 0.504737,-0.552115 z M 66.303865,88.365159 c 0.109722,-0.116794 0.218607,-0.212352 0.241965,-0.212352 0.02336,0 -0.0473,0.09556 -0.157024,0.212352 -0.109722,0.116793 -0.218606,0.212352 -0.241964,0.212352 -0.02336,0 0.0473,-0.09556 0.157023,-0.212352 z m -21.999668,0.100832 c 0,-0.01462 0.124226,-0.138844 0.276057,-0.276058 l 0.276058,-0.249478 -0.249479,0.276057 c -0.232549,0.257325 -0.302636,0.315101 -0.302636,0.249479 z m 22.764136,-0.769958 c 0,-0.01764 0.06689,-0.08453 0.148646,-0.148647 0.134721,-0.105655 0.137725,-0.102651 0.03207,0.03207 -0.110964,0.14149 -0.180716,0.186486 -0.180716,0.116577 z m -9.003726,-2.983329 c 0.158481,-0.163511 0.30726,-0.297293 0.330618,-0.297293 0.02336,0 -0.0872,0.133782 -0.245677,0.297293 -0.158481,0.163511 -0.307259,0.297293 -0.330618,0.297293 -0.02336,0 0.0872,-0.133782 0.245677,-0.297293 z M 79.36162,84.439047 c 0.15079,-0.01876 0.418353,-0.01907 0.594585,-6.85e-4 0.176233,0.01839 0.05286,0.03374 -0.274163,0.03412 -0.327022,3.77e-4 -0.471212,-0.01467 -0.320422,-0.03343 z m 9.095869,0.0033 c 0.06132,-0.02454 0.134578,-0.02152 0.162804,0.0067 0.02822,0.02823 -0.02194,0.0483 -0.111485,0.04461 -0.09895,-0.0041 -0.119079,-0.0242 -0.05132,-0.05132 z m -76.452034,-1.10248 c 0.0584,-0.02356 0.153956,-0.02356 0.212352,0 0.0584,0.02356 0.01062,0.04284 -0.106176,0.04284 -0.116793,0 -0.164572,-0.01928 -0.106176,-0.04284 z m 118.067725,0 c 0.0584,-0.02356 0.15395,-0.02356 0.21235,0 0.0584,0.02356 0.0106,0.04284 -0.10618,0.04284 -0.11679,0 -0.16457,-0.01928 -0.10617,-0.04284 z M 63.523671,82.742672 c 0.08264,-0.02154 0.197314,-0.02012 0.254822,0.0031 0.05751,0.02327 -0.01011,0.04089 -0.150263,0.03916 -0.140152,-0.0017 -0.187204,-0.02077 -0.104559,-0.0423 z m 3.273913,-1.697977 c 0.06132,-0.02454 0.134578,-0.02152 0.162803,0.0067 0.02823,0.02823 -0.02194,0.0483 -0.111485,0.04461 -0.09895,-0.0041 -0.119078,-0.0242 -0.05132,-0.05132 z m 24.717774,0 c 0.06132,-0.02454 0.134578,-0.02152 0.162804,0.0067 0.02823,0.02823 -0.02194,0.0483 -0.111485,0.04461 -0.09895,-0.0041 -0.119079,-0.0242 -0.05132,-0.05132 z m 43.633032,-1.555851 c 0.18247,-0.18687 0.35088,-0.339763 0.37424,-0.339763 0.0234,0 -0.10683,0.152893 -0.2893,0.339763 -0.18247,0.18687 -0.35088,0.339763 -0.37424,0.339763 -0.0234,0 0.10683,-0.152893 0.2893,-0.339763 z M 48.335692,76.324799 47.914181,75.87886 48.36012,76.300371 c 0.414375,0.391675 0.484893,0.470367 0.421511,0.470367 -0.01343,0 -0.214108,-0.200672 -0.445939,-0.445939 z m -15.746621,-0.70784 c 0.0041,-0.09895 0.0242,-0.119079 0.05132,-0.05132 0.02454,0.06132 0.02152,0.134578 -0.0067,0.162803 -0.02822,0.02823 -0.0483,-0.02194 -0.04461,-0.111485 z M 150.6635,75.411685 c 0,-0.116793 0.0193,-0.164573 0.0428,-0.106176 0.0236,0.0584 0.0236,0.153955 0,0.212352 -0.0236,0.0584 -0.0428,0.01062 -0.0428,-0.106176 z M 32.510836,73.373106 c 0,-0.116794 0.01928,-0.164573 0.04284,-0.106176 0.02356,0.0584 0.02356,0.153955 0,0.212352 -0.02356,0.0584 -0.04284,0.01062 -0.04284,-0.106176 z M 150.57856,73.203224 c 0,-0.116793 0.0193,-0.164573 0.0428,-0.106176 0.0236,0.0584 0.0236,0.153955 0,0.212352 -0.0236,0.0584 -0.0428,0.01062 -0.0428,-0.106176 z M 91.68524,72.12591 c 0.06132,-0.02454 0.134578,-0.02152 0.162803,0.0067 0.02822,0.02823 -0.02194,0.0483 -0.111485,0.04461 -0.09895,-0.0041 -0.119078,-0.0242 -0.05132,-0.05132 z m 0.424704,0 c 0.06132,-0.02454 0.134578,-0.02152 0.162803,0.0067 0.02823,0.02823 -0.02194,0.0483 -0.111485,0.04461 -0.09895,-0.0041 -0.119078,-0.0242 -0.05132,-0.05132 z M 32.425896,71.164645 c 0,-0.116794 0.01928,-0.164573 0.04284,-0.106176 0.02356,0.0584 0.02356,0.153955 0,0.212352 -0.02356,0.0584 -0.04284,0.01062 -0.04284,-0.106176 z M 150.49362,70.994763 c 0,-0.116793 0.0193,-0.164573 0.0428,-0.106176 0.0236,0.0584 0.0236,0.153955 0,0.212352 -0.0236,0.0584 -0.0428,0.01062 -0.0428,-0.106176 z M 45.934631,70.442648 c 0.0017,-0.140152 0.02077,-0.187204 0.0423,-0.104559 0.02154,0.08264 0.02012,0.197314 -0.0031,0.254822 -0.02327,0.05751 -0.04089,-0.01011 -0.03916,-0.150263 z m -0.0031,-0.637056 c 0,-0.116794 0.01928,-0.164573 0.04284,-0.106176 0.02356,0.0584 0.02356,0.153955 0,0.212352 -0.02356,0.0584 -0.04284,0.01062 -0.04284,-0.106176 z M 69.2835,69.246398 c 0.0041,-0.09895 0.0242,-0.119078 0.05132,-0.05132 0.02454,0.06132 0.02152,0.134578 -0.0067,0.162803 -0.02823,0.02822 -0.0483,-0.02194 -0.04461,-0.111485 z M 32.340955,68.956184 c 0,-0.116794 0.01928,-0.164573 0.04284,-0.106176 0.02356,0.0584 0.02356,0.153955 0,0.212352 -0.02356,0.0584 -0.04284,0.01062 -0.04284,-0.106176 z M 150.40867,68.786302 c 0,-0.116793 0.0193,-0.164573 0.0428,-0.106176 0.0236,0.0584 0.0236,0.153955 0,0.212352 -0.0236,0.0584 -0.0428,0.01062 -0.0428,-0.106176 z M 69.2835,68.651813 c 0.0041,-0.09895 0.0242,-0.119079 0.05132,-0.05132 0.02454,0.06132 0.02152,0.134578 -0.0067,0.162803 -0.02823,0.02823 -0.0483,-0.02194 -0.04461,-0.111484 z m 10.023015,-0.339764 c 0.0041,-0.09895 0.0242,-0.119078 0.05132,-0.05132 0.02454,0.06132 0.02152,0.134578 -0.0067,0.162803 -0.02823,0.02822 -0.0483,-0.02194 -0.04461,-0.111485 z M 32.256014,66.747723 c 0,-0.116794 0.01928,-0.164573 0.04284,-0.106176 0.02356,0.0584 0.02356,0.153955 0,0.212352 -0.02356,0.0584 -0.04284,0.01062 -0.04284,-0.106176 z M 150.32373,66.577841 c 0,-0.116793 0.0193,-0.164573 0.0428,-0.106176 0.0236,0.0584 0.0236,0.153955 0,0.212352 -0.0236,0.0584 -0.0428,0.01062 -0.0428,-0.106176 z m -80.197528,-0.03207 c 0,-0.01764 0.06689,-0.08453 0.148646,-0.148646 0.134721,-0.105655 0.137725,-0.102651 0.03207,0.03207 -0.110964,0.14149 -0.180716,0.186486 -0.180716,0.116576 z m 74.187728,-0.753632 -0.16182,-0.191117 0.19112,0.161811 c 0.1796,0.152063 0.22979,0.220423 0.16181,0.220423 -0.0161,0 -0.10212,-0.086 -0.19111,-0.191117 z m -118.152666,-0.08494 -0.161811,-0.191117 0.191117,0.161811 c 0.105114,0.089 0.191117,0.174999 0.191117,0.191117 0,0.06797 -0.06836,0.01779 -0.220423,-0.161811 z m -0.635414,-0.637056 -0.205923,-0.233587 0.233587,0.205923 c 0.218322,0.192466 0.27254,0.261251 0.205923,0.261251 -0.01521,0 -0.120329,-0.105114 -0.233587,-0.233587 z m 117.98278,-0.08494 -0.20592,-0.233587 0.23358,0.205923 c 0.21833,0.192466 0.27254,0.261251 0.20593,0.261251 -0.0152,0 -0.12033,-0.105114 -0.23359,-0.233587 z M 71.994899,64.846955 c 0,-0.01764 0.06689,-0.08453 0.148647,-0.148646 0.134721,-0.105656 0.137725,-0.102651 0.03207,0.03207 -0.110964,0.14149 -0.180717,0.186485 -0.180717,0.116576 z M 32.171073,64.539262 c 0,-0.116794 0.01928,-0.164573 0.04284,-0.106176 0.02356,0.0584 0.02356,0.153955 0,0.212352 -0.02356,0.0584 -0.04284,0.01062 -0.04284,-0.106176 z M 150.23879,64.36938 c 0,-0.116793 0.0193,-0.164573 0.0429,-0.106176 0.0236,0.0584 0.0236,0.153955 0,0.212352 -0.0236,0.0584 -0.0429,0.01062 -0.0429,-0.106176 z M 48.466296,63.408453 c 0,-0.01462 0.124226,-0.138845 0.276058,-0.276058 l 0.276057,-0.249479 -0.249478,0.276058 c -0.23255,0.257324 -0.302637,0.315101 -0.302637,0.249479 z m 0.764467,-0.769959 c 0,-0.01764 0.06689,-0.08453 0.148647,-0.148646 0.134721,-0.105656 0.137725,-0.102651 0.03207,0.03207 -0.110964,0.14149 -0.180717,0.186485 -0.180717,0.116576 z M 32.086132,62.330801 c 0,-0.116794 0.01928,-0.164573 0.04284,-0.106176 0.02356,0.0584 0.02356,0.153955 0,0.212352 -0.02356,0.0584 -0.04284,0.01062 -0.04284,-0.106176 z m 27.167647,0.05287 c 0,-0.01764 0.06689,-0.08453 0.148646,-0.148647 0.134721,-0.105655 0.137725,-0.102651 0.03207,0.03207 -0.110964,0.14149 -0.180716,0.186486 -0.180716,0.116577 z m 90.900071,-0.222753 c 0,-0.116793 0.0193,-0.164573 0.0428,-0.106176 0.0236,0.0584 0.0236,0.153955 0,0.212352 -0.0236,0.0584 -0.0428,0.01062 -0.0428,-0.106176 z M 72.408769,61.67251 c -0.105656,-0.134721 -0.102651,-0.137726 0.03207,-0.03207 0.08176,0.06412 0.148646,0.131008 0.148646,0.148646 0,0.06991 -0.06975,0.02491 -0.180716,-0.116576 z M 32.001192,60.12234 c 0,-0.116794 0.01928,-0.164573 0.04284,-0.106176 0.02356,0.0584 0.02356,0.153955 0,0.212352 -0.02356,0.0584 -0.04284,0.01062 -0.04284,-0.106176 z M 150.06891,59.952458 c 0,-0.116793 0.0193,-0.164573 0.0428,-0.106176 0.0236,0.0584 0.0236,0.153955 0,0.212352 -0.0236,0.0584 -0.0428,0.01062 -0.0428,-0.106176 z m -84.720629,0.02869 c 0.0584,-0.02356 0.153956,-0.02356 0.212352,0 0.0584,0.02356 0.01062,0.04284 -0.106176,0.04284 -0.116793,0 -0.164572,-0.01928 -0.106176,-0.04284 z m 0.764468,0 c 0.0584,-0.02356 0.153955,-0.02356 0.212352,0 0.0584,0.02356 0.01062,0.04284 -0.106176,0.04284 -0.116794,0 -0.164573,-0.01928 -0.106176,-0.04284 z M 62.07806,58.364972 c 0.08176,-0.02137 0.215538,-0.02137 0.297293,0 0.08176,0.02136 0.01487,0.03884 -0.148646,0.03884 -0.163511,0 -0.230402,-0.01748 -0.148647,-0.03884 z"
       id="path2" /><path
       style="fill:#677637;fill-opacity:1"
       d="m 61.037536,111.67771 c -2.71243,-0.20666 -6.420553,-0.91662 -8.858679,-1.69607 -5.977553,-1.91099 -9.851138,-5.91079 -10.734057,-11.083821 -0.197909,-1.159556 -0.200735,-3.617594 -0.0054,-4.679701 0.588604,-3.200107 2.817355,-6.306462 5.922766,-8.254941 2.704852,-1.697149 5.201683,-2.629567 9.043272,-3.377122 1.163432,-0.226398 4.366884,-0.718868 4.676143,-0.718868 0.02248,0 0.04087,-0.108016 0.04087,-0.240036 0,-0.237925 -0.0077,-0.241372 -0.870643,-0.391999 -1.342078,-0.234249 -3.085971,-0.678749 -4.905331,-1.250318 -3.737304,-1.174109 -5.407056,-2.073142 -7.098094,-3.821779 -1.587742,-1.641822 -2.247356,-3.377237 -2.254982,-5.932759 -0.0066,-2.216903 0.563277,-4.01503 1.884461,-5.945857 1.39484,-2.038472 3.498825,-3.505377 6.56499,-4.577135 3.070185,-1.073163 4.954011,-1.31699 10.204643,-1.320803 3.067373,-0.0022 3.17307,0.0033 4.403507,0.230461 3.312405,0.61152 5.467829,1.575388 7.524939,3.365023 0.672465,0.585028 1.458703,1.562221 1.798432,2.23522 0.140284,0.277902 0.385346,0.894621 0.54458,1.370486 0.835869,2.49796 0.401721,4.861564 -1.190053,6.478917 -0.686787,0.697823 -1.202695,0.986091 -2.187203,1.222117 -1.264508,0.303154 -2.472676,0.171858 -3.631763,-0.394675 -1.285929,-0.628531 -2.360438,-2.049039 -2.540627,-3.358726 -0.09712,-0.705872 0.01039,-1.62772 0.249022,-2.135393 0.258339,-0.549593 1.015753,-1.382614 2.059137,-2.264687 1.323143,-1.11858 1.647475,-1.703459 1.374482,-2.47865 -0.325139,-0.92326 -0.948841,-1.403948 -2.470506,-1.904021 -1.946314,-0.639629 -3.883544,-0.872882 -5.92777,-0.713736 -2.048284,0.159462 -2.79343,0.379568 -4.019543,1.187322 -0.9469,0.623809 -1.483965,1.214669 -2.008713,2.209911 -0.779798,1.478973 -0.758197,1.308281 -0.795309,6.284581 -0.02207,2.959835 -0.0016,4.594198 0.06318,5.053978 0.252477,1.790856 0.849789,3.093569 1.912585,4.171267 0.561414,0.569285 0.819785,0.757842 1.486464,1.084803 1.495095,0.733245 2.901135,0.956031 6.604148,1.046424 l 2.059814,0.05028 V 81.922 82.716595 l -3.036634,2.06e-4 c -5.165696,3.51e-4 -6.25991,0.16192 -7.809403,1.153118 -1.685213,1.078019 -3.273722,3.699561 -3.833372,6.32628 -0.339177,1.591928 -0.397738,2.331801 -0.39292,4.964224 0.0074,4.069669 0.384544,6.187087 1.534311,8.615257 1.492512,3.152 3.797714,5.16203 6.824013,5.95022 2.894892,0.75397 5.995809,0.47065 8.84332,-0.80799 3.868819,-1.73725 6.071246,-4.1269 6.880395,-7.46528 0.529367,-2.18406 0.715037,-4.946418 0.50597,-7.527721 l -0.107766,-1.330561 -3.026376,-0.06025 c -3.728121,-0.07422 -5.789863,0.04697 -7.976782,0.468881 -1.704272,0.328794 -2.736566,0.758613 -3.567313,1.485329 -0.640503,0.560297 -0.899648,1.037363 -0.849124,1.563175 0.02198,0.228726 0.103995,0.513596 0.182261,0.633046 0.198598,0.303098 0.534053,0.283968 1.644816,-0.0938 1.667406,-0.56708 2.959847,-0.475536 4.145661,0.29364 1.250314,0.811014 1.767289,1.867474 1.775017,3.627321 0.0023,0.51895 -0.04335,1.09129 -0.102637,1.28735 -0.269226,0.89034 -1.226207,1.87793 -2.233685,2.30512 -1.6965,0.71935 -3.981385,0.34552 -5.247978,-0.85861 -0.635805,-0.60446 -1.238841,-1.6868 -1.498839,-2.69017 -0.44913,-1.733253 -0.27328,-4.792941 0.393099,-6.839706 0.258089,-0.792712 1.114609,-2.475747 1.734036,-3.407325 0.618549,-0.930257 2.444313,-2.777578 3.37627,-3.416133 1.76664,-1.210462 4.539315,-2.150146 7.038101,-2.385276 0.458569,-0.04315 3.509823,-0.05684 6.922676,-0.03105 5.360151,0.0405 6.250685,0.02882 7.319051,-0.09592 1.324862,-0.154694 2.804444,-0.496481 3.658835,-0.8452 1.762649,-0.719423 2.875287,-2.245827 2.249604,-3.086183 -0.328835,-0.441659 -0.52638,-0.442102 -1.45293,-0.0033 -1.043328,0.494159 -1.406824,0.587282 -2.265879,0.580488 -2.023676,-0.016 -3.757911,-1.191202 -4.184457,-2.835583 -0.147315,-0.567914 -0.142316,-1.651439 0.01096,-2.374718 0.338306,-1.596432 1.477648,-2.894846 3.006836,-3.426645 1.387581,-0.482553 3.282753,-0.182967 4.572549,0.722821 0.328259,0.230527 0.755168,0.603436 0.948688,0.828686 0.463733,0.53977 0.98483,1.604008 1.198707,2.448125 0.628924,2.482191 -0.03787,6.624776 -1.462659,9.087039 -1.168225,2.018881 -3.369843,4.296543 -5.17672,5.355525 -1.870928,1.096521 -4.677227,1.73866 -7.598356,1.73866 h -1.207758 l -0.03397,3.503808 c -0.03374,3.479622 -0.03559,3.510515 -0.268745,4.475427 -1.03046,4.26456 -3.396336,7.40262 -6.914802,9.17167 -1.96249,0.98672 -3.579967,1.42909 -6.724527,1.83911 -1.245054,0.16234 -5.212524,0.23209 -6.710323,0.11797 z m -73.134034,-1.78006 v -0.8494 h 3.3126911 3.3126914 V 85.052467 61.056689 H -8.7838069 -12.096498 V 60.249751 59.442813 H 9.9456408 c 20.9338022,0 22.0424142,0.0075 22.0476102,0.148647 0.003,0.08176 0.1466,3.77031 0.319092,8.196788 l 0.313621,8.048141 h -1.068863 -1.068863 l -0.10648,-0.700761 c -0.155074,-1.020567 -0.710856,-3.138708 -1.062444,-4.049085 -0.315873,-0.817901 -1.6454,-3.383935 -2.138026,-4.126468 -0.834931,-1.258487 -1.906111,-2.280532 -3.475237,-3.315825 -2.04333,-1.348169 -3.684774,-1.956167 -6.455501,-2.391147 -0.67397,-0.105808 -1.871333,-0.141517 -5.79721,-0.172891 l -4.9478018,-0.03954 v 10.328317 10.328317 l 2.9092226,-5.01e-4 c 3.6038832,-6.2e-4 4.4087392,-0.09965 5.7862262,-0.71192 0.721846,-0.320849 1.469247,-0.883213 2.167461,-1.630854 1.3581,-1.45424 2.254022,-3.598517 2.487669,-5.953921 l 0.103788,-1.046293 h 1.0449 1.044901 V 82.589184 92.824551 H 20.994058 19.93841 l -0.05224,-0.48841 C 19.747354,91.038199 19.655689,90.344583 19.536795,89.692444 19.15801,87.614796 18.330611,86.195516 16.785346,84.972745 16.056308,84.395857 15.763219,84.223126 14.983905,83.911073 13.770856,83.425345 13.321876,83.375729 9.754524,83.333188 l -3.2489858,-0.03874 v 12.876901 12.876901 h 3.3126914 3.3126914 v 0.8494 0.84941 H 0.51721135 -12.096498 Z m 118.067718,0 v -0.8494 h 3.31269 3.31269 V 85.052467 61.056689 h -3.31269 -3.31269 v -0.806938 -0.806938 h 22.03452 22.03451 l 0.05,0.700762 c 0.0275,0.385419 0.16403,3.835077 0.3034,7.665908 0.13936,3.83083 0.26887,7.205152 0.28779,7.498492 l 0.0344,0.533347 -1.06271,-0.0237 -1.06271,-0.0237 -0.27419,-1.36539 c -0.30664,-1.52699 -0.75907,-3.045634 -1.18184,-3.966996 -0.54226,-1.18176 -1.84998,-3.507081 -2.31183,-4.110785 -1.46878,-1.919884 -4.35544,-3.821877 -6.87114,-4.527343 -2.34674,-0.658082 -3.61322,-0.765071 -9.06744,-0.76599 l -4.31074,-7.26e-4 V 71.38385 81.711007 l 3.33392,-0.03414 c 3.09588,-0.0317 3.38245,-0.04732 4.01346,-0.218705 1.73956,-0.472481 3.25468,-1.62396 4.43534,-3.370838 0.9675,-1.431491 1.46865,-2.968683 1.60632,-4.927116 l 0.0567,-0.806389 h 1.04922 1.04923 v 10.235368 10.235367 h -1.05076 -1.05075 l -0.10025,-0.955584 c -0.37553,-3.579775 -0.90336,-4.877326 -2.62782,-6.459856 -1.1344,-1.041043 -2.10091,-1.56622 -3.42054,-1.858636 -0.70664,-0.156583 -1.16109,-0.180874 -4.04507,-0.216216 l -3.24898,-0.03982 v 12.876901 12.876907 h 4.18982 c 2.36527,0 4.59387,-0.0399 5.11768,-0.0916 3.96578,-0.39141 7.66677,-2.07469 10.43287,-4.74505 1.70064,-1.64178 3.32423,-3.79571 4.14213,-5.49512 0.50351,-1.046172 1.19242,-3.103229 1.39719,-4.1719 l 0.15055,-0.78568 h 1.04529 1.04529 l 3.8e-4,0.233587 c 6.4e-4,0.401127 -0.75986,15.489323 -0.81346,16.138753 l -0.0508,0.61582 h -22.6295 -22.62948 z"
       id="path1" /></g></svg>
