<?xml version="1.0" encoding="UTF-8" standalone="no"?>
<!-- Generator: Adobe Illustrator 16.0.0, SVG Export Plug-In . SVG Version: 6.00 Build 0)  -->

<svg
   version="1.1"
   id="Capa_1"
   x="0px"
   y="0px"
   width="634.975px"
   height="634.975px"
   viewBox="0 0 634.975 634.975"
   style="enable-background:new 0 0 634.975 634.975;"
   xml:space="preserve"
   sodipodi:docname="left-arrow-curved-black-symbol_icon-icons.com_73000.svg"
   inkscape:version="1.3.2 (091e20e, 2023-11-25, custom)"
   xmlns:inkscape="http://www.inkscape.org/namespaces/inkscape"
   xmlns:sodipodi="http://sodipodi.sourceforge.net/DTD/sodipodi-0.dtd"
   xmlns:xlink="http://www.w3.org/1999/xlink"
   xmlns="http://www.w3.org/2000/svg"
   xmlns:svg="http://www.w3.org/2000/svg"><defs
   id="defs17"><linearGradient
     id="linearGradient17"
     inkscape:collect="always"><stop
       style="stop-color:#076cb3;stop-opacity:1;"
       offset="0"
       id="stop17" /><stop
       style="stop-color:#1186cc;stop-opacity:1;"
       offset="0.11911904"
       id="stop21" /><stop
       style="stop-color:#1691d8;stop-opacity:1;"
       offset="0.25676551"
       id="stop22" /><stop
       style="stop-color:#1ea2e4;stop-opacity:1;"
       offset="0.55166751"
       id="stop25" /><stop
       style="stop-color:#32bdef;stop-opacity:1;"
       offset="1"
       id="stop26" /></linearGradient><linearGradient
     inkscape:collect="always"
     xlink:href="#linearGradient17"
     id="linearGradient18"
     x1="605.03729"
     y1="617.97339"
     x2="5.8344421"
     y2="268.9476"
     gradientUnits="userSpaceOnUse"
     spreadMethod="repeat" /></defs><sodipodi:namedview
   id="namedview17"
   pagecolor="#ffffff"
   bordercolor="#000000"
   borderopacity="0.25"
   inkscape:showpageshadow="2"
   inkscape:pageopacity="0.0"
   inkscape:pagecheckerboard="0"
   inkscape:deskcolor="#d1d1d1"
   inkscape:zoom="0.86526555"
   inkscape:cx="318.39936"
   inkscape:cy="405.07796"
   inkscape:window-width="1920"
   inkscape:window-height="991"
   inkscape:window-x="-9"
   inkscape:window-y="-9"
   inkscape:window-maximized="1"
   inkscape:current-layer="Capa_1" />
















<path
   d="m 282.62905,159.09125 v -133.668 c 0.771,-6.686 -1.065,-13.598 -6.232,-18.743 -8.975,-8.907 -23.524,-8.907 -32.5,0 l -226.361003,248.209 c -4.782,4.759 -6.822,11.06 -6.504,17.292 -0.317,6.232 1.722,12.533 6.504,17.292 l 225.137003,246.849 c 8.408,7.184 23.819,11.264 33.746,1.359 5.145,-5.145 7.388,-9.473 6.618,-16.158 0,0 0,-122.586 0,-135.98 149.578,0 284.855,107.695 311.711,249.432 18.085,-41.564 28.238,-87.344 28.238,-135.572 0,-187.946 -152.387,-340.312 -340.357,-340.312 z"
   id="path1"
   style="fill:url(#linearGradient18)" /></svg>
