<?xml version="1.0" encoding="UTF-8" standalone="no"?>
<svg
   viewBox="0 0 100 100"
   width="100"
   height="100"
   version="1.1"
   id="svg13"
   sodipodi:docname="Support.svg"
   inkscape:version="1.3.2 (091e20e, 2023-11-25, custom)"
   xmlns:inkscape="http://www.inkscape.org/namespaces/inkscape"
   xmlns:sodipodi="http://sodipodi.sourceforge.net/DTD/sodipodi-0.dtd"
   xmlns="http://www.w3.org/2000/svg"
   xmlns:svg="http://www.w3.org/2000/svg">
  <defs
     id="defs13" />
  <sodipodi:namedview
     id="namedview13"
     pagecolor="#ffffff"
     bordercolor="#000000"
     borderopacity="0.25"
     inkscape:showpageshadow="2"
     inkscape:pageopacity="0.0"
     inkscape:pagecheckerboard="0"
     inkscape:deskcolor="#d1d1d1"
     inkscape:zoom="2.8615728"
     inkscape:cx="-82.996317"
     inkscape:cy="78.802819"
     inkscape:window-width="1920"
     inkscape:window-height="991"
     inkscape:window-x="-9"
     inkscape:window-y="-9"
     inkscape:window-maximized="1"
     inkscape:current-layer="svg13" />
  <radialGradient
     id="3ZiVhXF2zC5Hwg7NbMctDa"
     cx="30.146"
     cy="17.914"
     r="17.08"
     gradientUnits="userSpaceOnUse">
    <stop
       offset=".771"
       stop-color="#787f85"
       id="stop1" />
    <stop
       offset=".819"
       stop-color="#838a91"
       id="stop2" />
    <stop
       offset=".931"
       stop-color="#99a1aa"
       id="stop3" />
    <stop
       offset="1"
       stop-color="#a1aab3"
       id="stop4" />
  </radialGradient>
  <linearGradient
     id="3ZiVhXF2zC5Hwg7NbMctDb"
     x1="19.313999"
     x2="38.806"
     y1="8.6689997"
     y2="28.160999"
     gradientUnits="userSpaceOnUse">
    <stop
       offset="0"
       stop-color="#a1aab3"
       id="stop5" />
    <stop
       offset="1"
       stop-color="#8f979e"
       id="stop6" />
  </linearGradient>
  <linearGradient
     id="3ZiVhXF2zC5Hwg7NbMctDc"
     x1="12.789"
     x2="7.1820002"
     y1="40.789001"
     y2="35.181999"
     gradientUnits="userSpaceOnUse">
    <stop
       offset="0"
       stop-color="#fff"
       id="stop7" />
    <stop
       offset=".242"
       stop-color="#f2f2f2"
       id="stop8" />
    <stop
       offset="1"
       stop-color="#ccc"
       id="stop9" />
  </linearGradient>
  <linearGradient
     id="3ZiVhXF2zC5Hwg7NbMctDd"
     x1="8.1289997"
     x2="11.411"
     y1="36.129002"
     y2="39.410999"
     gradientUnits="userSpaceOnUse">
    <stop
       offset="0"
       stop-color="#0d61a9"
       id="stop10" />
    <stop
       offset=".363"
       stop-color="#0e5fa4"
       id="stop11" />
    <stop
       offset=".78"
       stop-color="#135796"
       id="stop12" />
    <stop
       offset="1"
       stop-color="#16528c"
       id="stop13" />
  </linearGradient>
  <g
     id="g13"
     transform="matrix(2.3279502,0,0,2.3279502,-5.3124647,-5.3115012)">
    <path
       fill="url(#3ZiVhXF2zC5Hwg7NbMctDa)"
       d="m 17.464,21.808 8.728,8.728 -11.656,11.656 c -2.41,2.41 -6.318,2.41 -8.728,0 v 0 c -2.41,-2.41 -2.41,-6.318 0,-8.728 z"
       id="path4"
       style="fill:url(#3ZiVhXF2zC5Hwg7NbMctDa)" />
    <path
       fill="url(#3ZiVhXF2zC5Hwg7NbMctDb)"
       d="m 36.883,19.304 c -2.261,2.261 -5.927,2.261 -8.188,0 -2.261,-2.261 -2.261,-5.927 0,-8.188 0.552,-0.552 2.775,-2.775 5.04,-5.04 C 34.278,5.533 34.037,4.584 33.291,4.401 31.455,3.949 29.48,3.855 27.425,4.242 21.399,5.378 16.7,10.42 16.075,16.521 c -0.912,8.895 6.511,16.317 15.406,15.403 6.1,-0.627 11.141,-5.326 12.276,-11.352 0.387,-2.054 0.292,-4.028 -0.159,-5.864 -0.184,-0.746 -1.132,-0.987 -1.675,-0.444 -2.265,2.265 -4.488,4.489 -5.04,5.04 z"
       id="path6"
       style="fill:url(#3ZiVhXF2zC5Hwg7NbMctDb)" />
    <circle
       cx="10"
       cy="38"
       r="4"
       fill="url(#3ZiVhXF2zC5Hwg7NbMctDc)"
       id="circle9"
       style="fill:url(#3ZiVhXF2zC5Hwg7NbMctDc)" />
    <circle
       cx="10"
       cy="38"
       r="2"
       fill="url(#3ZiVhXF2zC5Hwg7NbMctDd)"
       id="circle13"
       style="fill:url(#3ZiVhXF2zC5Hwg7NbMctDd)" />
  </g>
</svg>
