<?xml version="1.0" encoding="UTF-8" standalone="no"?>
<!-- Created with Inkscape (http://www.inkscape.org/) -->

<svg
   width="220mm"
   height="220mm"
   viewBox="0 0 220 220"
   version="1.1"
   id="svg1"
   xml:space="preserve"
   inkscape:version="1.3.2 (091e20e, 2023-11-25, custom)"
   sodipodi:docname="GranFragancia_logo.svg"
   xmlns:inkscape="http://www.inkscape.org/namespaces/inkscape"
   xmlns:sodipodi="http://sodipodi.sourceforge.net/DTD/sodipodi-0.dtd"
   xmlns="http://www.w3.org/2000/svg"
   xmlns:svg="http://www.w3.org/2000/svg"><sodipodi:namedview
     id="namedview1"
     pagecolor="#ffffff"
     bordercolor="#000000"
     borderopacity="0.25"
     inkscape:showpageshadow="2"
     inkscape:pageopacity="0.0"
     inkscape:pagecheckerboard="0"
     inkscape:deskcolor="#d1d1d1"
     inkscape:document-units="mm"
     inkscape:zoom="0.4894542"
     inkscape:cx="6.1292762"
     inkscape:cy="519.96693"
     inkscape:window-width="1920"
     inkscape:window-height="991"
     inkscape:window-x="-9"
     inkscape:window-y="-9"
     inkscape:window-maximized="1"
     inkscape:current-layer="layer1" /><defs
     id="defs1"><rect
       x="156.29655"
       y="305.95303"
       width="124.11785"
       height="81.212914"
       id="rect1" /></defs><g
     inkscape:label="Capa 1"
     inkscape:groupmode="layer"
     id="layer1"
     transform="translate(0.24634549,0.46583085)"><g
       id="g2"
       transform="matrix(1.4929804,0,0,1.4929804,-45.669294,-63.952509)"><path
         style="fill:#677637;fill-opacity:1"
         d="m 121.86397,141.99643 c 0,-24.8549 0.008,-35.03392 0.0188,-22.62005 0.0104,12.41388 0.0104,32.7497 0,45.19073 -0.0104,12.44103 -0.0188,2.28422 -0.0188,-22.57068 z m 9.88535,15.12552 c 0,-16.53587 0.009,-23.30054 0.0189,-15.03261 0.0104,8.26793 0.0104,21.79728 0,30.06522 -0.0104,8.26793 -0.0189,1.50326 -0.0189,-15.03261 z m 22.8373,-17.66469 c 0.0511,-0.0206 0.13471,-0.0206 0.18581,0 0.0511,0.0206 0.009,0.0375 -0.0929,0.0375 -0.1022,0 -0.14401,-0.0169 -0.0929,-0.0375 z m -76.296531,-2.15749 c 0.07154,-0.0187 0.188604,-0.0187 0.260144,0 0.07154,0.0187 0.01301,0.034 -0.130072,0.034 -0.14308,0 -0.201612,-0.0153 -0.130072,-0.034 z m 6.020476,-1.33789 c 0.07154,-0.0187 0.188604,-0.0187 0.260144,0 0.07154,0.0187 0.01301,0.034 -0.130072,0.034 -0.143079,0 -0.201612,-0.0153 -0.130072,-0.034 z m 0.706972,-0.001 c 0.09246,-0.0178 0.226244,-0.0171 0.297307,0.001 0.07106,0.0186 -0.0046,0.0332 -0.168102,0.0323 -0.163519,-8.3e-4 -0.221661,-0.0161 -0.129205,-0.0338 z m 20.531933,-8.52308 c 0,-0.0154 0.0585,-0.074 0.13007,-0.13007 0.11789,-0.0925 0.12051,-0.0898 0.0281,0.0281 -0.0971,0.12381 -0.15813,0.16318 -0.15813,0.10201 z m -55.234346,-2.10884 c -0.09245,-0.11788 -0.08982,-0.12051 0.02806,-0.0281 0.07154,0.0561 0.130072,0.11464 0.130072,0.13007 0,0.0612 -0.06104,0.0218 -0.158135,-0.10201 z m 61.775106,-0.41347 c 0,-0.0128 0.1087,-0.12149 0.24156,-0.24156 l 0.24157,-0.21831 -0.21831,0.24157 c -0.20349,0.22516 -0.26482,0.27572 -0.26482,0.2183 z m -51.889632,-0.6271 c -0.09245,-0.11789 -0.08982,-0.12052 0.02806,-0.0281 0.12381,0.0971 0.163183,0.15814 0.10201,0.15814 -0.01543,0 -0.07397,-0.0585 -0.130072,-0.13007 z m 52.818722,-0.31589 c 0.24272,-0.24528 0.45803,-0.44596 0.47847,-0.44596 0.0204,0 -0.16143,0.20068 -0.40415,0.44596 -0.24272,0.24528 -0.45803,0.44596 -0.47847,0.44596 -0.0204,0 0.16143,-0.20068 0.40415,-0.44596 z m 18.7734,-3.01643 c 0.004,-0.0866 0.0212,-0.1042 0.0449,-0.0449 0.0215,0.0537 0.0188,0.11776 -0.006,0.14246 -0.0247,0.0247 -0.0423,-0.0192 -0.039,-0.0975 z m -0.0441,-12.85236 c 1e-5,-5.72316 0.009,-8.05348 0.0196,-5.17849 0.0108,2.875 0.0108,7.5576 0,10.40576 -0.0108,2.84817 -0.0196,0.4959 -0.0196,-5.22727 z m 22.02501,-10.047733 c 0.0536,-0.02147 0.11776,-0.01883 0.14246,0.0059 0.0247,0.0247 -0.0192,0.04227 -0.0976,0.03904 -0.0866,-0.0036 -0.1042,-0.02118 -0.0449,-0.04491 z m -3.71635,-0.22298 c 0.0537,-0.02147 0.11777,-0.01883 0.14246,0.0059 0.0247,0.0247 -0.0192,0.04227 -0.0976,0.03904 -0.0866,-0.0036 -0.1042,-0.02118 -0.0449,-0.0449 z m -2.67908,-0.07742 c 0.13359,-0.01654 0.33428,-0.0162 0.44596,7.59e-4 0.11169,0.01696 0.002,0.03049 -0.24289,0.03008 -0.24528,-4.17e-4 -0.33666,-0.01429 -0.20307,-0.03084 z m -54.40391,-2.30137 c 0.05366,-0.02147 0.117762,-0.01883 0.14246,0.0059 0.0247,0.0247 -0.0192,0.04227 -0.09755,0.03904 -0.08659,-0.0036 -0.104199,-0.02118 -0.04491,-0.04491 z m 1.263557,-0.07433 c 0.05365,-0.02147 0.117762,-0.01883 0.14246,0.0059 0.0247,0.0247 -0.0192,0.04227 -0.09755,0.03904 -0.08659,-0.0036 -0.104199,-0.02118 -0.04491,-0.04491 z m 1.560864,-0.07433 c 0.05366,-0.02147 0.117762,-0.01883 0.14246,0.0059 0.0247,0.0247 -0.0192,0.04227 -0.09755,0.03904 -0.08659,-0.0036 -0.104199,-0.02118 -0.04491,-0.04491 z m 2.410978,-0.07479 c 0.07154,-0.0187 0.188604,-0.0187 0.260144,0 0.07154,0.01869 0.01301,0.03399 -0.130072,0.03399 -0.143079,0 -0.201612,-0.0153 -0.130072,-0.03399 z m 4.387531,-0.07782 c 0.19541,-0.01536 0.49643,-0.01518 0.66894,4.11e-4 0.1725,0.01559 0.0126,0.02816 -0.3553,0.02793 -0.36791,-2.27e-4 -0.50906,-0.01298 -0.31364,-0.02834 z M 35.622375,93.015031 c 0.0015,-0.122639 0.01817,-0.163812 0.03702,-0.09149 0.01884,0.07232 0.01761,0.172659 -0.0028,0.222981 -0.02036,0.05032 -0.03578,-0.0088 -0.03426,-0.131487 z m -0.0028,-2.638604 c 0,-0.102199 0.01687,-0.144008 0.03749,-0.09291 0.02062,0.0511 0.02062,0.134717 0,0.185817 -0.02062,0.0511 -0.03749,0.0093 -0.03749,-0.09291 z m 9.888228,-1.226393 c 0.0015,-0.122639 0.01817,-0.163811 0.03702,-0.09149 0.01884,0.07232 0.0176,0.172659 -0.0028,0.222981 -0.02036,0.05032 -0.03578,-0.0088 -0.03426,-0.131487 z m -0.0086,-3.499556 c 0.0036,-0.08659 0.02118,-0.104199 0.0449,-0.04491 0.02147,0.05366 0.01883,0.117762 -0.0059,0.14246 -0.0247,0.0247 -0.04227,-0.0192 -0.03904,-0.09755 z m 65.660357,-20.731 c 1e-5,-3.67918 0.009,-5.173414 0.0201,-3.320521 0.0111,1.852893 0.0111,4.863131 -1e-5,6.689417 -0.0111,1.826287 -0.0201,0.310284 -0.0201,-3.368896 z M 48.169126,60.39464 c 0,-0.01543 0.05853,-0.07397 0.130072,-0.130072 0.117886,-0.09245 0.120515,-0.08982 0.02806,0.02806 -0.0971,0.12381 -0.158134,0.163183 -0.158134,0.102009 z m 1.523701,-1.532801 c 0.07399,-0.08176 0.151253,-0.148654 0.171693,-0.148654 0.02044,0 -0.02338,0.06689 -0.09737,0.148654 -0.07399,0.08176 -0.151254,0.148654 -0.171694,0.148654 -0.02044,0 0.02337,-0.06689 0.09737,-0.148654 z m 51.684853,-1.096321 c -0.0924,-0.117887 -0.0898,-0.120516 0.0281,-0.02806 0.0715,0.05611 0.13008,0.114638 0.13008,0.130072 0,0.06117 -0.061,0.0218 -0.15814,-0.102009 z m -15.464442,-11.813 c 0.05365,-0.02147 0.117762,-0.01883 0.14246,0.0059 0.0247,0.0247 -0.0192,0.04227 -0.09755,0.03904 -0.08659,-0.0036 -0.104199,-0.02118 -0.04491,-0.04491 z m -4.500006,-0.07506 c 0.07232,-0.01884 0.172659,-0.01761 0.22298,0.0028 0.05032,0.02036 -0.0088,0.03578 -0.131486,0.03426 -0.12264,-0.0015 -0.163812,-0.01817 -0.09149,-0.03702 z m 2.860169,0.0023 c 0.0511,-0.02062 0.134718,-0.02062 0.185818,0 0.0511,0.02062 0.0093,0.03749 -0.09291,0.03749 -0.102199,0 -0.144008,-0.01687 -0.09291,-0.03749 z"
         id="path6" /><path
         style="fill:#677637;fill-opacity:1"
         d="m 157.41353,139.52593 c 0.21599,-0.0151 0.55046,-0.0149 0.74327,3.5e-4 0.19281,0.0152 0.0161,0.0276 -0.39271,0.0274 -0.4088,-1.9e-4 -0.56655,-0.0127 -0.35056,-0.0277 z m -3.12422,-0.0687 c 0.0511,-0.0206 0.13472,-0.0206 0.18582,0 0.0511,0.0206 0.009,0.0375 -0.0929,0.0375 -0.1022,0 -0.14401,-0.0169 -0.0929,-0.0375 z m -75.590424,-2.15548 c 0.0511,-0.0206 0.134718,-0.0206 0.185818,0 0.0511,0.0206 0.0093,0.0375 -0.09291,0.0375 -0.102199,0 -0.144008,-0.0169 -0.09291,-0.0375 z m 5.241459,-1.34017 c 0.07232,-0.0188 0.172659,-0.0176 0.222981,0.003 0.05032,0.0204 -0.0088,0.0358 -0.131487,0.0343 -0.122639,-0.002 -0.163812,-0.0182 -0.09149,-0.037 z m 1.560864,0 c 0.07232,-0.0188 0.172659,-0.0176 0.222981,0.003 0.05032,0.0204 -0.0088,0.0358 -0.131487,0.0343 -0.122639,-0.002 -0.163811,-0.0182 -0.09149,-0.037 z m 46.235101,-17.04367 c 0,-0.26572 0.0135,-0.37442 0.03,-0.24156 0.0165,0.13286 0.0165,0.35026 0,0.48312 -0.0165,0.13286 -0.03,0.0242 -0.03,-0.24156 z M 151.9155,97.906993 c 0.0537,-0.02147 0.11776,-0.01883 0.14246,0.0059 0.0247,0.0247 -0.0192,0.04227 -0.0976,0.03904 -0.0866,-0.0036 -0.1042,-0.02118 -0.0449,-0.04491 z m -1.63984,-0.07278 c 0.0511,-0.02062 0.13472,-0.02062 0.18582,0 0.0511,0.02062 0.009,0.03749 -0.0929,0.03749 -0.1022,0 -0.14401,-0.01687 -0.0929,-0.03749 z m -2.15548,-0.07756 c 0.092,-0.01772 0.24249,-0.01772 0.33447,0 0.092,0.01772 0.0167,0.03221 -0.16723,0.03221 -0.18396,0 -0.25922,-0.01449 -0.16724,-0.03221 z M 134.82171,96.78712 c 7.12662,-0.01045 18.7662,-0.01045 25.86575,10e-7 7.09954,0.01045 1.26867,0.019 -12.9575,0.019 -14.22616,-10e-7 -20.03487,-0.0086 -12.90825,-0.019 z M 95.575731,95.305553 c 0.05365,-0.02147 0.117761,-0.01883 0.142459,0.0059 0.0247,0.0247 -0.0192,0.04227 -0.09755,0.03904 -0.08659,-0.0036 -0.104198,-0.02118 -0.0449,-0.04491 z m 2.263738,-0.07506 c 0.07232,-0.01884 0.172659,-0.01761 0.222981,0.0028 0.05032,0.02036 -0.0088,0.03578 -0.131487,0.03426 -0.122639,-0.0015 -0.163811,-0.01817 -0.09149,-0.03702 z m 3.676111,-0.07646 c 0.13194,-0.01642 0.36607,-0.01669 0.52028,-5.99e-4 0.15422,0.01609 0.0463,0.02952 -0.2399,0.02985 -0.28616,3.29e-4 -0.41233,-0.01283 -0.28038,-0.02926 z m -65.8275,-0.658655 c 0.0036,-0.08659 0.02118,-0.104198 0.04491,-0.04491 0.02147,0.05366 0.01883,0.117762 -0.0059,0.14246 -0.0247,0.0247 -0.04227,-0.0192 -0.03904,-0.09755 z m 43.376414,-0.38402 c 6.711188,-0.01046 17.715281,-0.01046 24.453536,-10e-7 6.73826,0.01046 1.24729,0.01902 -12.202158,0.01903 -13.449447,0 -18.962567,-0.0086 -12.251378,-0.01902 z M 35.630159,92.45758 c 0,-0.224839 0.01393,-0.316819 0.03096,-0.204399 0.01703,0.112419 0.01703,0.296378 0,0.408797 -0.01703,0.11242 -0.03096,0.02044 -0.03096,-0.204398 z m -10e-4,-1.598028 c 5.58e-4,-0.204399 0.01499,-0.279195 0.03208,-0.166213 0.01708,0.112981 0.01663,0.280217 -0.001,0.371634 -0.01764,0.09142 -0.03162,-10e-4 -0.03106,-0.205421 z m 9.94441,0.14246 c 0.0036,-0.08659 0.02118,-0.104199 0.0449,-0.04491 0.02147,0.05366 0.01883,0.117762 -0.0059,0.14246 -0.0247,0.0247 -0.04227,-0.0192 -0.03904,-0.09755 z m -0.06846,-1.517507 c 0,-0.102199 0.01687,-0.144008 0.03749,-0.09291 0.02062,0.0511 0.02062,0.134717 0,0.185817 -0.02062,0.0511 -0.03749,0.0093 -0.03749,-0.09291 z M 35.68808,88.995187 c 0.0036,-0.08659 0.02118,-0.104199 0.04491,-0.04491 0.02147,0.05365 0.01883,0.117761 -0.0059,0.14246 -0.0247,0.0247 -0.04227,-0.0192 -0.03904,-0.09755 z m 9.817015,-3.598659 c 0,-0.1022 0.01687,-0.144008 0.03749,-0.09291 0.02062,0.0511 0.02062,0.134718 0,0.185817 -0.02062,0.0511 -0.03749,0.0093 -0.03749,-0.09291 z M 48.392107,60.17166 c 0,-0.01544 0.05853,-0.07397 0.130072,-0.130072 0.117886,-0.09245 0.120515,-0.08982 0.02806,0.02806 -0.0971,0.12381 -0.158134,0.163183 -0.158134,0.10201 z m 53.208553,-2.183162 c -0.0924,-0.117886 -0.0898,-0.120515 0.0281,-0.02806 0.0715,0.0561 0.13008,0.114637 0.13008,0.130072 0,0.06117 -0.061,0.0218 -0.15814,-0.10201 z m -0.51643,-0.520288 -0.18019,-0.204399 0.2044,0.180192 c 0.19104,0.168416 0.23848,0.228606 0.18019,0.228606 -0.0133,0 -0.1053,-0.09198 -0.2044,-0.204399 z M 76.325072,47.513382 c 0.05365,-0.02147 0.117762,-0.01883 0.14246,0.0059 0.0247,0.0247 -0.0192,0.04227 -0.09755,0.03904 -0.08659,-0.0036 -0.104199,-0.02118 -0.04491,-0.04491 z m 1.965017,-0.07479 c 0.07154,-0.0187 0.188604,-0.0187 0.260144,0 0.07154,0.0187 0.01301,0.03399 -0.130072,0.03399 -0.14308,0 -0.201612,-0.0153 -0.130072,-0.03399 z m 3.493362,-1.560864 c 0.07154,-0.0187 0.188605,-0.0187 0.260144,0 0.07154,0.0187 0.01301,0.03399 -0.130072,0.03399 -0.143079,0 -0.201611,-0.0153 -0.130072,-0.03399 z m 2.156894,-2.73e-4 c 0.07232,-0.01884 0.172659,-0.01761 0.222981,0.0028 0.05032,0.02036 -0.0088,0.03578 -0.131487,0.03426 -0.122639,-0.0015 -0.163812,-0.01817 -0.09149,-0.03702 z"
         id="path5" /><path
         style="fill:#677637;fill-opacity:1"
         d="m 156.5573,139.52747 c 0.11298,-0.0171 0.28022,-0.0166 0.37164,0.001 0.0914,0.0176 -0.001,0.0316 -0.20543,0.0311 -0.20439,-5.6e-4 -0.27919,-0.015 -0.16621,-0.0321 z m -2.5653,-0.0702 c 0.0511,-0.0206 0.13472,-0.0206 0.18582,0 0.0511,0.0206 0.009,0.0375 -0.0929,0.0375 -0.1022,0 -0.14401,-0.0169 -0.0929,-0.0375 z m -74.995806,-2.15548 c 0.0511,-0.0206 0.134717,-0.0206 0.185817,0 0.0511,0.0206 0.0093,0.0375 -0.09291,0.0375 -0.102199,0 -0.144008,-0.0169 -0.09291,-0.0375 z m 4.687238,-1.33943 c 0.05366,-0.0215 0.117762,-0.0188 0.14246,0.006 0.0247,0.0247 -0.0192,0.0423 -0.09755,0.039 -0.08659,-0.004 -0.104199,-0.0212 -0.04491,-0.0449 z m 21.494398,-8.15325 c 0,-0.0154 0.0585,-0.074 0.13007,-0.13007 0.11789,-0.0924 0.12052,-0.0898 0.0281,0.0281 -0.0971,0.12381 -0.15814,0.16319 -0.15814,0.10201 z m 0.84063,-1.19833 c 4.2e-4,-0.24528 0.0143,-0.33666 0.0308,-0.20307 0.0165,0.1336 0.0162,0.33428 -7.6e-4,0.44597 -0.017,0.11168 -0.0305,0.002 -0.0301,-0.2429 z m -7.6e-4,-0.85476 c 0,-0.22484 0.0139,-0.31682 0.031,-0.2044 0.017,0.11242 0.017,0.29638 0,0.4088 -0.017,0.11242 -0.031,0.0204 -0.031,-0.2044 z m 7.6e-4,-0.85476 c 4.2e-4,-0.24527 0.0143,-0.33666 0.0308,-0.20306 0.0165,0.13359 0.0162,0.33427 -7.6e-4,0.44596 -0.017,0.11168 -0.0305,0.002 -0.0301,-0.2429 z m -56.109715,0.0186 -0.141591,-0.16724 0.167235,0.14159 c 0.09198,0.0779 0.167235,0.15313 0.167235,0.16724 0,0.0595 -0.05982,0.0156 -0.192879,-0.14159 z M 106.0177,124.0465 c 0,-0.22484 0.0139,-0.31682 0.031,-0.2044 0.017,0.11242 0.017,0.29637 0,0.40879 -0.017,0.11242 -0.031,0.0204 -0.031,-0.20439 z m -46.188737,-0.13008 c -0.09245,-0.11788 -0.08982,-0.12051 0.02806,-0.0281 0.07154,0.0561 0.130072,0.11464 0.130072,0.13007 0,0.0612 -0.06104,0.0218 -0.158135,-0.10201 z m 46.189497,-0.72468 c 4.2e-4,-0.24528 0.0143,-0.33666 0.0308,-0.20307 0.0165,0.13359 0.0162,0.33427 -7.6e-4,0.44596 -0.017,0.11169 -0.0305,0.002 -0.0301,-0.24289 z m 7.6e-4,-0.92909 c 0,-0.26572 0.0135,-0.37442 0.03,-0.24156 0.0165,0.13286 0.0165,0.35026 0,0.48312 -0.0165,0.13286 -0.03,0.0242 -0.03,-0.24156 z m -7.6e-4,-0.92909 c 4.2e-4,-0.24527 0.0143,-0.33665 0.0308,-0.20306 0.0165,0.13359 0.0162,0.33427 -7.6e-4,0.44596 -0.017,0.11169 -0.0305,0.002 -0.0301,-0.2429 z m 0.0133,-13.26734 c 0,-7.05176 0.009,-9.936572 0.0194,-6.41069 0.0107,3.52588 0.0107,9.2955 0,12.82138 -0.0107,3.52588 -0.0194,0.64107 -0.0194,-6.41069 z m 9.73685,-0.55745 c 0,-7.35836 0.009,-10.379612 0.0194,-6.71389 0.0107,3.66572 0.0107,9.68619 0,13.37883 -0.0107,3.69264 -0.0194,0.69342 -0.0194,-6.66494 z m 15.96116,12.07811 c 0,-0.14308 0.0153,-0.20161 0.034,-0.13007 0.0187,0.0715 0.0187,0.18861 0,0.26015 -0.0187,0.0715 -0.034,0.013 -0.034,-0.13008 z m 18.84784,-21.754213 c 0.0537,-0.02147 0.11776,-0.01883 0.14246,0.0059 0.0247,0.0247 -0.0192,0.04227 -0.0975,0.03904 -0.0866,-0.0036 -0.1042,-0.02118 -0.0449,-0.0449 z m -1.93714,-0.07278 c 0.0511,-0.02062 0.13472,-0.02062 0.18582,0 0.0511,0.02062 0.009,0.03749 -0.0929,0.03749 -0.1022,0 -0.14401,-0.01687 -0.0929,-0.03749 z M 95.35275,95.305553 c 0.05366,-0.02147 0.117762,-0.01883 0.14246,0.0059 0.0247,0.0247 -0.0192,0.04227 -0.09755,0.03904 -0.08659,-0.0036 -0.104199,-0.02118 -0.04491,-0.04491 z m 2.039343,-0.07479 c 0.07154,-0.0187 0.188605,-0.0187 0.260144,0 0.07154,0.01869 0.01301,0.03399 -0.130072,0.03399 -0.143079,0 -0.201611,-0.0153 -0.130072,-0.03399 z m 3.456197,-0.07555 c 0.092,-0.01772 0.24249,-0.01772 0.33447,0 0.092,0.01772 0.0167,0.03221 -0.16723,0.03221 -0.18396,0 -0.25922,-0.01449 -0.16724,-0.03221 z M 35.631676,91.639984 c 0,-0.265718 0.01349,-0.374421 0.02998,-0.241562 0.01649,0.132859 0.01649,0.350265 0,0.483124 -0.01649,0.13286 -0.02998,0.02416 -0.02998,-0.241562 z m 9.867551,-1.901529 c 0.0036,-0.08659 0.02118,-0.104199 0.0449,-0.04491 0.02147,0.05365 0.01883,0.117762 -0.0059,0.14246 -0.0247,0.0247 -0.04227,-0.0192 -0.03904,-0.09755 z m 0.0059,-4.639235 c 0,-0.102199 0.01687,-0.144008 0.03749,-0.09291 0.02062,0.0511 0.02062,0.134717 0,0.185817 -0.02062,0.0511 -0.03749,0.0093 -0.03749,-0.09291 z m 0.06846,-1.38124 c 0.0036,-0.08659 0.02118,-0.104199 0.0449,-0.04491 0.02147,0.05366 0.01883,0.117761 -0.0059,0.14246 -0.0247,0.0247 -0.04227,-0.0192 -0.03904,-0.09755 z m 3.190187,-23.927055 c 0.09601,-0.1022 0.19129,-0.185818 0.211729,-0.185818 0.02044,0 -0.04139,0.08362 -0.137402,0.185818 -0.09601,0.102199 -0.19129,0.185817 -0.21173,0.185817 -0.02044,0 0.04139,-0.08362 0.137403,-0.185817 z m 0.520288,-0.520288 c 0.09601,-0.1022 0.19129,-0.185818 0.21173,-0.185818 0.02044,0 -0.04139,0.08362 -0.137403,0.185818 -0.09601,0.102199 -0.19129,0.185817 -0.21173,0.185817 -0.02044,0 0.04139,-0.08362 0.137403,-0.185817 z m 52.579198,-1.021995 -0.1416,-0.167235 0.16724,0.141592 c 0.15716,0.133061 0.20107,0.192879 0.14159,0.192879 -0.0141,0 -0.0894,-0.07526 -0.16723,-0.167236 z m 8.35935,-1.003412 c -0.0924,-0.117887 -0.0898,-0.120516 0.0281,-0.02806 0.0715,0.0561 0.13007,0.114638 0.13007,0.130072 0,0.06117 -0.061,0.0218 -0.15813,-0.102009 z M 100.7831,57.1709 c -0.0925,-0.117887 -0.0898,-0.120516 0.0281,-0.02806 0.0715,0.05611 0.13007,0.114638 0.13007,0.130072 0,0.06117 -0.061,0.0218 -0.15813,-0.102009 z M 56.605225,56.334726 c 0.159672,-0.163519 0.307037,-0.297308 0.327477,-0.297308 0.02044,0 -0.09348,0.133789 -0.25315,0.297308 -0.159672,0.163519 -0.307036,0.297307 -0.327476,0.297307 -0.02044,0 0.09348,-0.133788 0.253149,-0.297307 z m 21.127412,-8.897352 c 0.09198,-0.01772 0.242492,-0.01772 0.334471,0 0.09198,0.01772 0.01672,0.03221 -0.167235,0.03221 -0.183959,0 -0.259215,-0.0145 -0.167236,-0.03221 z m 1.003413,0.0012 c 0.07154,-0.0187 0.188604,-0.0187 0.260144,0 0.07154,0.0187 0.01301,0.03399 -0.130072,0.03399 -0.143079,0 -0.201612,-0.0153 -0.130072,-0.03399 z m 6.805554,-1.486076 c 0.05365,-0.02147 0.117761,-0.01883 0.142459,0.0059 0.0247,0.0247 -0.0192,0.04227 -0.09755,0.03904 -0.08659,-0.0036 -0.104198,-0.02118 -0.0449,-0.04491 z m -3.275028,-0.07601 c 0.09198,-0.01772 0.242491,-0.01772 0.334471,0 0.09198,0.01772 0.01672,0.03221 -0.167236,0.03221 -0.183959,0 -0.259214,-0.01449 -0.167235,-0.03221 z m 1.114903,0 c 0.09198,-0.01772 0.242491,-0.01772 0.334471,0 0.09198,0.01772 0.01672,0.03221 -0.167236,0.03221 -0.183959,0 -0.259214,-0.01449 -0.167235,-0.03221 z"
         id="path4" /><path
         style="fill:#677637;fill-opacity:1"
         d="m 156.03599,139.52957 c 0.0715,-0.0187 0.18861,-0.0187 0.26015,0 0.0715,0.0187 0.013,0.034 -0.13008,0.034 -0.14308,0 -0.20161,-0.0153 -0.13007,-0.034 z m -76.705325,-2.2298 c 0.07154,-0.0187 0.188604,-0.0187 0.260144,0 0.07154,0.0187 0.01301,0.034 -0.130072,0.034 -0.143079,0 -0.201612,-0.0153 -0.130072,-0.034 z m 2.342163,-0.001 c 0.09246,-0.0178 0.226244,-0.0171 0.297307,0.001 0.07106,0.0186 -0.0046,0.0332 -0.168102,0.0323 -0.163519,-8.3e-4 -0.221661,-0.016 -0.129205,-0.0338 z m -4.158526,-0.0725 c 0.05366,-0.0215 0.117762,-0.0188 0.14246,0.006 0.0247,0.0247 -0.0192,0.0423 -0.09755,0.039 -0.08659,-0.004 -0.104199,-0.0212 -0.04491,-0.0449 z m 59.507918,-1.00838 -0.21831,-0.24156 0.24157,0.2183 c 0.13286,0.12007 0.24156,0.22877 0.24156,0.24156 0,0.0574 -0.0613,0.007 -0.26482,-0.2183 z m -53.561769,-0.25517 c 0.05365,-0.0215 0.117762,-0.0188 0.14246,0.006 0.0247,0.0247 -0.0192,0.0423 -0.09755,0.039 -0.08659,-0.004 -0.104199,-0.0212 -0.04491,-0.0449 z m 2.527114,0 c 0.05365,-0.0215 0.117761,-0.0188 0.14246,0.006 0.0247,0.0247 -0.0192,0.0423 -0.09755,0.039 -0.08659,-0.004 -0.104199,-0.0212 -0.04491,-0.0449 z m 50.514365,-0.26512 -0.2183,-0.24156 0.24156,0.2183 c 0.13286,0.12007 0.24156,0.22877 0.24156,0.24157 0,0.0574 -0.0613,0.007 -0.26482,-0.21831 z m 0.2206,-1.48654 -0.1416,-0.16723 0.16724,0.14159 c 0.15716,0.13306 0.20107,0.19288 0.14159,0.19288 -0.0141,0 -0.0894,-0.0753 -0.16723,-0.16724 z m -0.48169,-0.48312 -0.18019,-0.2044 0.20439,0.18019 c 0.11242,0.0991 0.2044,0.19109 0.2044,0.2044 0,0.0583 -0.0602,0.0109 -0.2286,-0.18019 z m -74.107744,-7.50701 c -0.09245,-0.11789 -0.08982,-0.12052 0.02806,-0.0281 0.07154,0.0561 0.130072,0.11464 0.130072,0.13008 0,0.0612 -0.06104,0.0218 -0.158135,-0.10201 z m -12.521658,-1.59803 -0.141592,-0.16724 0.167236,0.14159 c 0.15716,0.13307 0.201072,0.19288 0.141591,0.19288 -0.0141,0 -0.08936,-0.0752 -0.167235,-0.16723 z m 9.994545,-0.92909 c -0.09245,-0.11788 -0.08982,-0.12051 0.02806,-0.0281 0.12381,0.0971 0.163183,0.15813 0.10201,0.15813 -0.01544,0 -0.07397,-0.0585 -0.130072,-0.13007 z m -11.254537,-0.33447 -0.29381,-0.31589 0.315889,0.29381 c 0.293774,0.27324 0.350044,0.33797 0.29381,0.33797 -0.01214,0 -0.154294,-0.14215 -0.315889,-0.31589 z m 65.448304,-0.23246 c 0,-0.0154 0.0585,-0.074 0.13007,-0.13007 0.11789,-0.0925 0.12052,-0.0898 0.0281,0.0281 -0.0971,0.12381 -0.15813,0.16318 -0.15813,0.10201 z m 17.99297,-1.65049 c 0.004,-0.0866 0.0212,-0.10419 0.0449,-0.0449 0.0215,0.0536 0.0188,0.11776 -0.006,0.14246 -0.0247,0.0247 -0.0423,-0.0192 -0.039,-0.0976 z m -0.0685,-1.5175 c 0,-0.1022 0.0169,-0.14401 0.0375,-0.0929 0.0206,0.0511 0.0206,0.13472 0,0.18582 -0.0206,0.0511 -0.0375,0.009 -0.0375,-0.0929 z m 41.64141,-13.10011 -0.14159,-0.16724 0.16723,0.14159 c 0.15716,0.13307 0.20108,0.19288 0.1416,0.19288 -0.0141,0 -0.0894,-0.0752 -0.16724,-0.16723 z m -21.07854,-8.951417 c 0.0537,-0.02147 0.11776,-0.01883 0.14246,0.0059 0.0247,0.0247 -0.0192,0.04227 -0.0975,0.03904 -0.0866,-0.0036 -0.1042,-0.02118 -0.0449,-0.04491 z m -1.49118,-0.07278 c 0.0511,-0.02062 0.13471,-0.02062 0.18581,0 0.0511,0.02062 0.009,0.03749 -0.0929,0.03749 -0.1022,0 -0.14401,-0.01687 -0.0929,-0.03749 z m -1.85353,-0.07587 c 0.0537,-0.02147 0.11776,-0.01883 0.14246,0.0059 0.0247,0.0247 -0.0192,0.04227 -0.0976,0.03904 -0.0866,-0.0036 -0.1042,-0.02118 -0.0449,-0.04491 z M 134.89,97.679063 c 1.72717,-0.01112 4.55345,-0.01112 6.28062,0 1.72717,0.01112 0.31403,0.02022 -3.14031,0.02022 -3.45434,0 -4.86748,-0.0091 -3.14031,-0.02022 z M 93.717559,95.37988 c 0.05366,-0.02147 0.117762,-0.01883 0.14246,0.0059 0.0247,0.0247 -0.0192,0.04227 -0.09755,0.03904 -0.08659,-0.0036 -0.104199,-0.02118 -0.04491,-0.04491 z m 1.41221,-0.07433 c 0.05366,-0.02147 0.117762,-0.01883 0.14246,0.0059 0.0247,0.0247 -0.0192,0.04227 -0.09755,0.03904 -0.08659,-0.0036 -0.104199,-0.02118 -0.04491,-0.04491 z m 2.006826,-0.07433 c 0.05365,-0.02147 0.117761,-0.01883 0.14246,0.0059 0.0247,0.0247 -0.0192,0.04227 -0.09755,0.03904 -0.08659,-0.0036 -0.104199,-0.02118 -0.04491,-0.0449 z m 3.117085,-0.07601 c 0.092,-0.01772 0.24249,-0.01772 0.33447,0 0.092,0.01772 0.0167,0.03221 -0.16724,0.03221 -0.18396,0 -0.25921,-0.01449 -0.16723,-0.03221 z m -64.5656,-1.03147 c 0.0036,-0.08659 0.02118,-0.104199 0.04491,-0.04491 0.02147,0.05366 0.01883,0.117762 -0.0059,0.14246 -0.0247,0.0247 -0.04227,-0.0192 -0.03904,-0.09755 z m 9.811147,-4.162304 c 0.0036,-0.08659 0.02118,-0.104199 0.0449,-0.04491 0.02147,0.05366 0.01883,0.117762 -0.0059,0.14246 -0.0247,0.0247 -0.04227,-0.0192 -0.03904,-0.09755 z M 35.68808,89.366821 c 0.0036,-0.08659 0.02118,-0.104199 0.04491,-0.04491 0.02147,0.05365 0.01883,0.117762 -0.0059,0.14246 -0.0247,0.0247 -0.04227,-0.0192 -0.03904,-0.09755 z m 9.811147,-4.533938 c 0.0036,-0.08659 0.02118,-0.104199 0.0449,-0.04491 0.02147,0.05365 0.01883,0.117761 -0.0059,0.14246 -0.0247,0.0247 -0.04227,-0.0192 -0.03904,-0.09755 z m 2.000957,-23.694974 c 0,-0.01543 0.05853,-0.07397 0.130072,-0.130072 0.117887,-0.09245 0.120516,-0.08982 0.02806,0.02806 -0.0971,0.123809 -0.158135,0.163183 -0.158135,0.102009 z m 54.660346,-2.591959 -0.14159,-0.167236 0.16724,0.141592 c 0.15716,0.133061 0.20107,0.192879 0.14159,0.192879 -0.0141,0 -0.0894,-0.07526 -0.16724,-0.167235 z M 50.398932,58.239161 c 0,-0.01543 0.05853,-0.07397 0.130072,-0.130072 0.117886,-0.09245 0.120515,-0.08982 0.02806,0.02806 -0.0971,0.12381 -0.158134,0.163183 -0.158134,0.102009 z m 50.161158,-1.291239 c -0.0925,-0.117886 -0.0898,-0.120515 0.0281,-0.02806 0.0715,0.05611 0.13007,0.114637 0.13007,0.130072 0,0.06117 -0.061,0.0218 -0.15813,-0.10201 z M 56.122101,56.826951 c 0,-0.01543 0.05853,-0.07397 0.130072,-0.130072 0.117886,-0.09245 0.120515,-0.08982 0.02806,0.02806 -0.0971,0.123809 -0.158134,0.163183 -0.158134,0.102009 z m 0.929085,-0.938187 c 0.07399,-0.08176 0.151254,-0.148653 0.171694,-0.148653 0.02044,0 -0.02338,0.06689 -0.09737,0.148653 -0.07399,0.08176 -0.151253,0.148654 -0.171693,0.148654 -0.02044,0 0.02338,-0.06689 0.09737,-0.148654 z m 20.309817,-8.44816 c 0.0511,-0.02062 0.134717,-0.02062 0.185817,0 0.0511,0.02062 0.0093,0.03749 -0.09291,0.03749 -0.102199,0 -0.144008,-0.01687 -0.09291,-0.03749 z m 1.822423,-0.0023 c 0.07232,-0.01884 0.172659,-0.01761 0.22298,0.0028 0.05032,0.02036 -0.0088,0.03578 -0.131486,0.03426 -0.12264,-0.0015 -0.163812,-0.01817 -0.09149,-0.03702 z m 3.678632,-1.561924 c 0.09246,-0.01778 0.226244,-0.0171 0.297307,0.0015 0.07106,0.0186 -0.0046,0.03315 -0.168102,0.03232 -0.163519,-8.25e-4 -0.221662,-0.01605 -0.129205,-0.03382 z"
         id="path3" /><path
         style="fill:#677637;fill-opacity:1"
         d="m 157.91075,149.07607 -0.51829,-0.53887 0.53887,0.51829 c 0.5005,0.48139 0.57281,0.55944 0.51829,0.55944 -0.0113,0 -0.25381,-0.24249 -0.53887,-0.53886 z m -2.24498,-9.54677 c 0.0723,-0.0188 0.17266,-0.0176 0.22298,0.003 0.0503,0.0204 -0.009,0.0358 -0.13148,0.0343 -0.12264,-0.002 -0.16382,-0.0182 -0.0915,-0.037 z m -2.04076,-0.0736 c 0.0537,-0.0215 0.11777,-0.0188 0.14246,0.006 0.0247,0.0247 -0.0192,0.0423 -0.0976,0.039 -0.0866,-0.004 -0.1042,-0.0212 -0.0449,-0.0449 z m -73.811221,-2.15716 c 0.09198,-0.0177 0.242492,-0.0177 0.334471,0 0.09198,0.0177 0.01672,0.0322 -0.167235,0.0322 -0.183959,0 -0.259215,-0.0145 -0.167236,-0.0322 z m 1.040577,-0.001 c 0.132859,-0.0165 0.350265,-0.0165 0.483124,0 0.132859,0.0165 0.02416,0.03 -0.241562,0.03 -0.265719,0 -0.374422,-0.0135 -0.241562,-0.03 z m 2.085797,-0.0713 c 0.05366,-0.0215 0.117762,-0.0188 0.14246,0.006 0.0247,0.0247 -0.0192,0.0423 -0.09755,0.039 -0.08659,-0.004 -0.104199,-0.0212 -0.04491,-0.0449 z m 54.857687,-0.30228 c -0.0925,-0.11788 -0.0898,-0.12051 0.0281,-0.0281 0.0715,0.0561 0.13007,0.11464 0.13007,0.13007 0,0.0612 -0.061,0.0218 -0.15813,-0.10201 z m -54.560379,-0.96127 c 0.05365,-0.0215 0.117761,-0.0188 0.14246,0.006 0.0247,0.0247 -0.0192,0.0423 -0.09755,0.039 -0.08659,-0.004 -0.104199,-0.0212 -0.04491,-0.0449 z m 52.627879,-0.97122 c -0.0925,-0.11789 -0.0898,-0.12052 0.0281,-0.0281 0.12381,0.0971 0.16318,0.15814 0.10201,0.15814 -0.0154,0 -0.074,-0.0585 -0.13007,-0.13007 z m 1.15448,-0.48313 -0.14159,-0.16723 0.16724,0.14159 c 0.15716,0.13306 0.20107,0.19288 0.14159,0.19288 -0.0141,0 -0.0894,-0.0753 -0.16724,-0.16724 z m -33.32853,-5.36101 c 0,-0.0154 0.0585,-0.074 0.13007,-0.13008 0.11788,-0.0924 0.12051,-0.0898 0.0281,0.0281 -0.0971,0.12381 -0.15813,0.16318 -0.15813,0.10201 z m 0.52028,-0.44597 c 0,-0.0154 0.0585,-0.074 0.13008,-0.13007 0.11788,-0.0925 0.12051,-0.0898 0.0281,0.0281 -0.0971,0.12381 -0.15814,0.16318 -0.15814,0.102 z m 0.66895,-0.59461 c 0,-0.0154 0.0585,-0.074 0.13007,-0.13007 0.11788,-0.0925 0.12051,-0.0898 0.0281,0.0281 -0.0971,0.12381 -0.15813,0.16318 -0.15813,0.10201 z m -41.781185,-0.99393 c -0.09245,-0.11789 -0.08982,-0.12052 0.02806,-0.0281 0.12381,0.0971 0.163183,0.15813 0.102009,0.15813 -0.01543,0 -0.07397,-0.0585 -0.130072,-0.13007 z m 42.747425,0.10201 c 0,-0.0154 0.0585,-0.074 0.13008,-0.13007 0.11788,-0.0925 0.12051,-0.0898 0.0281,0.0281 -0.0971,0.12381 -0.15814,0.16318 -0.15814,0.10201 z m -43.490693,-0.77095 c -0.09245,-0.11789 -0.08982,-0.12052 0.02806,-0.0281 0.12381,0.0971 0.163183,0.15814 0.10201,0.15814 -0.01543,0 -0.07397,-0.0585 -0.130072,-0.13007 z m -11.074703,-0.29731 c -0.09245,-0.11789 -0.08982,-0.12052 0.02806,-0.0281 0.07154,0.0561 0.130072,0.11463 0.130072,0.13007 0,0.0612 -0.06104,0.0218 -0.158134,-0.10201 z m 59.470976,-0.0466 c 0,-0.0154 0.0585,-0.074 0.13007,-0.13007 0.11789,-0.0924 0.12052,-0.0898 0.0281,0.0281 -0.0971,0.1238 -0.15813,0.16318 -0.15813,0.102 z m -49.800644,-0.99393 -0.630137,-0.65036 0.65036,0.63014 c 0.604035,0.58525 0.684218,0.67058 0.630137,0.67058 -0.01112,0 -0.303784,-0.29266 -0.65036,-0.65036 z M 50.612432,125.552 c -0.09245,-0.11788 -0.08982,-0.12051 0.02806,-0.0281 0.12381,0.0971 0.163183,0.15814 0.10201,0.15814 -0.01543,0 -0.07397,-0.0585 -0.130072,-0.13008 z m 60.883188,-0.11616 c 0,-0.0128 0.1087,-0.1215 0.24156,-0.24156 l 0.24156,-0.21831 -0.2183,0.24156 c -0.20349,0.22517 -0.26482,0.27573 -0.26482,0.21831 z m -62.437111,-1.37037 -0.406258,-0.42738 0.427379,0.40626 c 0.397049,0.37742 0.461428,0.4485 0.406259,0.4485 -0.01162,0 -0.203937,-0.19232 -0.42738,-0.42738 z m 10.175839,-0.74327 c -0.09245,-0.11789 -0.08982,-0.12052 0.02806,-0.0281 0.12381,0.0971 0.163183,0.15813 0.102009,0.15813 -0.01543,0 -0.07397,-0.0585 -0.130072,-0.13007 z m 54.379582,-0.0186 c 0.074,-0.0818 0.15126,-0.14866 0.1717,-0.14866 0.0204,0 -0.0234,0.0669 -0.0974,0.14866 -0.074,0.0818 -0.15125,0.14865 -0.17169,0.14865 -0.0204,0 0.0234,-0.0669 0.0974,-0.14865 z m -65.974573,-0.72469 c -0.09245,-0.11789 -0.08982,-0.12052 0.02806,-0.0281 0.123809,0.0971 0.163183,0.15813 0.102009,0.15813 -0.01543,0 -0.07397,-0.0585 -0.130072,-0.13007 z m 10.926049,0 c -0.09245,-0.11789 -0.08982,-0.12052 0.02806,-0.0281 0.12381,0.0971 0.163183,0.15813 0.102009,0.15813 -0.01543,0 -0.07397,-0.0585 -0.130072,-0.13007 z m 55.680304,0.0277 c 0,-0.0154 0.0585,-0.074 0.13007,-0.13007 0.11789,-0.0924 0.12052,-0.0898 0.0281,0.0281 -0.0971,0.12381 -0.15813,0.16319 -0.15813,0.10201 z m 17.47855,-2.35039 c 0,-0.1022 0.0169,-0.14401 0.0375,-0.0929 0.0206,0.0511 0.0206,0.13471 0,0.18581 -0.0206,0.0511 -0.0375,0.009 -0.0375,-0.0929 z m 41.23567,-13.80622 -0.25614,-0.27872 0.27873,0.25614 c 0.25943,0.23841 0.3129,0.30131 0.25614,0.30131 -0.0124,0 -0.13785,-0.12543 -0.27873,-0.27873 z m -0.70916,-0.63178 -0.14159,-0.16723 0.16723,0.14159 c 0.15716,0.13306 0.20107,0.19288 0.14159,0.19288 -0.0141,0 -0.0894,-0.0753 -0.16723,-0.16724 z m -0.70853,-0.63178 c -0.0924,-0.11788 -0.0898,-0.12051 0.0281,-0.0281 0.0715,0.0561 0.13007,0.11464 0.13007,0.13007 0,0.0612 -0.061,0.0218 -0.15814,-0.10201 z M 67.122477,103.7272 c 0,-0.0154 0.05853,-0.074 0.130072,-0.13007 0.117886,-0.0925 0.120515,-0.0898 0.02806,0.0281 -0.0971,0.12381 -0.158134,0.16318 -0.158134,0.10201 z M 151.0979,97.832667 c 0.0536,-0.02147 0.11776,-0.01883 0.14246,0.0059 0.0247,0.0247 -0.0192,0.04227 -0.0976,0.03904 -0.0866,-0.0036 -0.1042,-0.02118 -0.0449,-0.0449 z m -1.93714,-0.07278 c 0.0511,-0.02062 0.13471,-0.02062 0.18581,0 0.0511,0.02062 0.009,0.03749 -0.0929,0.03749 -0.10219,0 -0.144,-0.01687 -0.0929,-0.03749 z m -4.68425,-0.07874 c 0.13194,-0.01642 0.36607,-0.01669 0.52028,-6e-4 0.15421,0.01609 0.0463,0.02952 -0.2399,0.02985 -0.28616,3.3e-4 -0.41233,-0.01283 -0.28038,-0.02925 z m -52.171162,-2.22694 c 0.05366,-0.02147 0.117762,-0.01883 0.14246,0.0059 0.0247,0.0247 -0.0192,0.04227 -0.09755,0.03904 -0.08659,-0.0036 -0.104199,-0.02118 -0.04491,-0.04491 z m 2.522468,-0.147105 c 0.0511,-0.02062 0.134718,-0.02062 0.185818,0 0.0511,0.02062 0.0093,0.03749 -0.09291,0.03749 -0.102199,0 -0.144008,-0.01687 -0.09291,-0.03749 z m 2.006826,-0.07433 c 0.0511,-0.02062 0.134717,-0.02062 0.185817,0 0.0511,0.02062 0.0093,0.03749 -0.09291,0.03749 -0.102199,0 -0.144008,-0.01687 -0.09291,-0.03749 z m 2.788279,-0.07844 c 0.112982,-0.01708 0.280217,-0.01663 0.371635,0.001 0.09141,0.01764 -0.001,0.03162 -0.205421,0.03106 -0.204399,-5.58e-4 -0.279195,-0.01499 -0.166214,-0.03208 z M 35.68808,93.900759 c 0.0036,-0.08659 0.02118,-0.104198 0.04491,-0.0449 0.02147,0.05365 0.01883,0.117761 -0.0059,0.142459 -0.0247,0.0247 -0.04227,-0.0192 -0.03904,-0.09755 z m 9.811147,-3.716343 c 0.0036,-0.08659 0.02118,-0.104198 0.0449,-0.0449 0.02147,0.05365 0.01883,0.117761 -0.0059,0.142459 -0.0247,0.0247 -0.04227,-0.0192 -0.03904,-0.09755 z m 0,-5.574514 c 0.0036,-0.08659 0.02118,-0.104199 0.0449,-0.04491 0.02147,0.05366 0.01883,0.117762 -0.0059,0.14246 -0.0247,0.0247 -0.04227,-0.0192 -0.03904,-0.09755 z m 1.480669,-22.877378 c 0,-0.01543 0.05853,-0.07397 0.130072,-0.130072 0.117887,-0.09245 0.120516,-0.08982 0.02806,0.02806 -0.0971,0.12381 -0.158135,0.163183 -0.158135,0.10201 z m 0.743269,-0.812791 c 0,-0.01279 0.108703,-0.121494 0.241562,-0.241562 l 0.241562,-0.218305 -0.218304,0.241563 c -0.203491,0.22517 -0.26482,0.275726 -0.26482,0.218304 z m 55.512685,-1.221717 c -0.0924,-0.117886 -0.0898,-0.120515 0.0281,-0.02806 0.0715,0.05611 0.13007,0.114637 0.13007,0.130072 0,0.06117 -0.061,0.0218 -0.15814,-0.10201 z m -0.7013,-0.780432 -0.2183,-0.241562 0.24156,0.218304 c 0.22517,0.203491 0.27573,0.26482 0.21831,0.26482 -0.0128,0 -0.1215,-0.108703 -0.24157,-0.241562 z M 50.175951,58.453041 c 0.09601,-0.102199 0.19129,-0.185817 0.21173,-0.185817 0.02044,0 -0.04139,0.08362 -0.137403,0.185817 -0.09601,0.1022 -0.19129,0.185817 -0.211729,0.185817 -0.02044,0 0.04139,-0.08362 0.137402,-0.185817 z M 50.91922,57.7932 c 0,-0.01543 0.05853,-0.07397 0.130072,-0.130072 0.117887,-0.09245 0.120516,-0.08982 0.02806,0.02806 -0.0971,0.12381 -0.158135,0.163183 -0.158135,0.102009 z m 4.9799,-0.752369 c 0.09601,-0.1022 0.19129,-0.185817 0.21173,-0.185817 0.02044,0 -0.04139,0.08362 -0.137403,0.185817 -0.09601,0.102199 -0.19129,0.185817 -0.21173,0.185817 -0.02044,0 0.04139,-0.08362 0.137403,-0.185817 z m 53.91947,-0.204399 -0.21831,-0.241562 0.24156,0.218304 c 0.22517,0.203491 0.27573,0.26482 0.21831,0.26482 -0.0128,0 -0.1215,-0.108703 -0.24156,-0.241562 z m -9.55196,-0.185817 -0.18019,-0.204399 0.2044,0.180192 c 0.19104,0.168416 0.23849,0.228606 0.18019,0.228606 -0.0133,0 -0.10529,-0.09198 -0.2044,-0.204399 z m 8.62501,-0.743269 -0.40626,-0.427379 0.42738,0.406258 c 0.23506,0.223443 0.42738,0.415763 0.42738,0.42738 0,0.05517 -0.0711,-0.0092 -0.4485,-0.406259 z m -9.446457,0 c -0.09245,-0.117886 -0.08982,-0.120515 0.02806,-0.02806 0.07154,0.05611 0.130072,0.114637 0.130072,0.130072 0,0.06117 -0.06104,0.0218 -0.158135,-0.10201 z M 57.385657,55.554294 c 0.09601,-0.1022 0.19129,-0.185818 0.21173,-0.185818 0.02044,0 -0.04139,0.08362 -0.137403,0.185818 -0.09601,0.102199 -0.191289,0.185817 -0.211729,0.185817 -0.02044,0 0.04139,-0.08362 0.137402,-0.185817 z m 50.423713,-0.65036 -0.14159,-0.167236 0.16724,0.141592 c 0.15716,0.133061 0.20107,0.192879 0.14159,0.192879 -0.0141,0 -0.0894,-0.07526 -0.16724,-0.167235 z m -49.680444,-0.0095 c 0,-0.01543 0.05853,-0.07397 0.130072,-0.130072 0.117887,-0.09245 0.120516,-0.08982 0.02806,0.02806 -0.0971,0.12381 -0.158135,0.163183 -0.158135,0.10201 z m 19.013742,-7.455397 c 0.05365,-0.02147 0.117761,-0.01883 0.142459,0.0059 0.0247,0.0247 -0.0192,0.04227 -0.09755,0.03904 -0.08659,-0.0036 -0.104198,-0.02118 -0.0449,-0.0449 z m 2.412392,-7.35e-4 c 0.07232,-0.01884 0.172659,-0.01761 0.222981,0.0028 0.05032,0.02036 -0.0088,0.03578 -0.131487,0.03426 -0.122639,-0.0015 -0.163812,-0.01817 -0.09149,-0.03702 z m 5.614909,-1.485803 c 0.05366,-0.02147 0.117762,-0.01883 0.14246,0.0059 0.0247,0.0247 -0.0192,0.04227 -0.09755,0.03904 -0.08659,-0.0036 -0.104199,-0.02118 -0.04491,-0.04491 z"
         id="path2" /><path
         style="fill:#677637;fill-opacity:1"
         d="M 121.90138,141.99643 V 96.842864 h 25.82858 25.82859 v 5.065536 5.06555 l -0.42738,-0.40245 c -5.21619,-4.91188 -9.93434,-7.285884 -16.29617,-8.199653 -3.72517,-0.535059 -6.11591,-0.634456 -16.55968,-0.688487 l -8.56955,-0.04433 0.0262,11.92159 c 0.0284,12.89474 0.0141,12.40273 0.43643,15.04202 1.2136,7.58405 5.17125,11.87488 12.64645,13.71112 3.21883,0.79068 7.86729,1.26058 12.52184,1.26578 l 1.13349,0.001 v 4.98799 4.98799 l -0.65036,-0.61633 c -2.28357,-2.16408 -4.69379,-3.62606 -10.53049,-6.38752 -5.6919,-2.69295 -8.37815,-4.41588 -10.75953,-6.90103 -2.06212,-2.152 -3.60539,-4.85398 -4.48471,-7.85191 -0.10791,-0.36792 -0.22462,-0.73583 -0.25936,-0.81759 -0.0348,-0.082 -0.0654,13.38556 -0.0682,30.00947 l -0.005,30.15812 h -4.90557 -4.90557 z M 78.791795,137.26715 C 73.58948,137.10544 68.030942,135.82646 63.124504,133.66221 48.613607,127.26139 38.409392,113.84742 36.133206,98.180748 c -0.32683,-2.249524 -0.407478,-3.497379 -0.410715,-6.354947 -0.0032,-2.804059 0.0504,-3.742404 0.339505,-5.946149 1.821791,-13.886843 10.09111,-26.336652 22.141257,-33.334594 6.336461,-3.679804 13.98215,-5.956021 21.99079,-6.546931 1.384802,-0.102176 5.32632,-0.05638 6.69938,0.07783 7.121226,0.696104 13.547107,3.150434 18.990517,7.253327 1.59776,1.204287 3.86707,3.313473 4.82564,4.485119 l 0.4144,0.506528 v 6.564259 6.564258 l -0.33509,-0.688482 c -2.04703,-4.205843 -5.52426,-9.091631 -8.9902,-12.63195 -6.071165,-6.201449 -12.682823,-9.669689 -20.070984,-10.528522 -5.634322,-0.65496 -12.434616,0.583647 -17.578304,3.201714 -7.245425,3.687824 -12.747154,10.388603 -15.893475,19.35731 -1.26282,3.599715 -2.149848,7.809729 -2.591779,12.301095 -0.189168,1.922534 -0.188666,8.021964 8.2e-4,9.959799 0.486442,4.974733 1.482961,9.394368 3.056187,13.554418 5.585737,14.77024 17.001084,26.18132 29.197336,29.18643 5.260509,1.29617 10.236695,1.1082 16.073148,-0.60716 3.936302,-1.15689 7.735411,-3.4673 11.539251,-7.01752 l 0.53887,-0.50295 V 111.08349 95.133347 l -2.80584,9.5e-5 c -18.661403,6.35e-4 -28.565713,2.282919 -35.709441,8.228648 l -0.654983,0.54514 v -4.870066 -4.870067 h 24.416376 24.416378 l -0.003,13.360253 -0.003,13.36025 -0.56041,0.66895 c -5.06313,6.04362 -11.76724,10.55769 -19.353963,13.03158 -6.472808,2.11066 -11.227914,2.85909 -17.020852,2.67902 z"
         id="path1" /></g></g></svg>
